<svg width="25" height="25" viewBox="0 0 25 25" fill="none" xmlns="http://www.w3.org/2000/svg">
<path d="M5.20833 2.0835H19.7917C20.0679 2.0835 20.3329 2.19324 20.5282 2.38859C20.7236 2.58394 20.8333 2.8489 20.8333 3.12516V21.8752C20.8333 22.1514 20.7236 22.4164 20.5282 22.6117C20.3329 22.8071 20.0679 22.9168 19.7917 22.9168H5.20833C4.93206 22.9168 4.66711 22.8071 4.47176 22.6117C4.27641 22.4164 4.16666 22.1514 4.16666 21.8752V3.12516C4.16666 2.8489 4.27641 2.58394 4.47176 2.38859C4.66711 2.19324 4.93206 2.0835 5.20833 2.0835ZM9.375 11.4585V8.3335L4.16666 12.5002L9.375 16.6668V13.5418H15.625V11.4585H9.375Z" fill="#1935CA"/>
</svg>
