<svg width="239" height="42" viewBox="0 0 239 42" fill="none" xmlns="http://www.w3.org/2000/svg">
<circle cx="21" cy="21" r="21" fill="#1935CA"/>
<path d="M51.3718 19.5449C51.3718 17.6826 51.7747 16.0262 52.5805 14.5757C53.3863 13.1073 54.5056 11.9702 55.9381 11.1643C57.3886 10.3406 59.0271 9.92873 60.8537 9.92873C63.0921 9.92873 65.0082 10.5197 66.6019 11.7016C68.1957 12.8834 69.2612 14.4951 69.7984 16.5365H64.7485C64.3725 15.7486 63.8353 15.1487 63.1369 14.7368C62.4564 14.325 61.6774 14.119 60.8 14.119C59.3853 14.119 58.2392 14.6115 57.3618 15.5964C56.4843 16.5813 56.0456 17.8975 56.0456 19.5449C56.0456 21.1924 56.4843 22.5086 57.3618 23.4935C58.2392 24.4784 59.3853 24.9709 60.8 24.9709C61.6774 24.9709 62.4564 24.7649 63.1369 24.3531C63.8353 23.9412 64.3725 23.3413 64.7485 22.5534H69.7984C69.2612 24.5948 68.1957 26.2065 66.6019 27.3883C65.0082 28.5523 63.0921 29.1343 60.8537 29.1343C59.0271 29.1343 57.3886 28.7314 55.9381 27.9256C54.5056 27.1018 53.3863 25.9647 52.5805 24.5142C51.7747 23.0637 51.3718 21.4073 51.3718 19.5449ZM88.4592 14.0116L79.0579 36.1182H74.1154L77.5536 28.4896L71.4562 14.0116H76.5866L80.0517 23.3861L83.4899 14.0116H88.4592ZM95.2506 16.1336C95.6804 15.4352 96.2982 14.8711 97.104 14.4414C97.9098 14.0116 98.8321 13.7967 99.8707 13.7967C101.106 13.7967 102.225 14.1101 103.228 14.7368C104.231 15.3636 105.019 16.259 105.592 17.4229C106.183 18.5869 106.478 19.9389 106.478 21.4789C106.478 23.019 106.183 24.3799 105.592 25.5618C105.019 26.7258 104.231 27.6301 103.228 28.2748C102.225 28.9015 101.106 29.2149 99.8707 29.2149C98.8141 29.2149 97.8919 29.009 97.104 28.5971C96.3161 28.1673 95.6983 27.6032 95.2506 26.9048V29H90.6574V9.1229H95.2506V16.1336ZM101.805 21.4789C101.805 20.3329 101.482 19.4375 100.838 18.7928C100.211 18.1303 99.432 17.799 98.5008 17.799C97.5875 17.799 96.8085 18.1303 96.1639 18.7928C95.5371 19.4554 95.2237 20.3597 95.2237 21.5058C95.2237 22.6519 95.5371 23.5562 96.1639 24.2188C96.8085 24.8813 97.5875 25.2126 98.5008 25.2126C99.414 25.2126 100.193 24.8813 100.838 24.2188C101.482 23.5383 101.805 22.625 101.805 21.4789ZM123.554 21.264C123.554 21.6938 123.527 22.1415 123.474 22.6071H113.078C113.15 23.5383 113.446 24.2546 113.965 24.756C114.502 25.2395 115.156 25.4812 115.926 25.4812C117.072 25.4812 117.869 24.9977 118.316 24.0307H123.205C122.954 25.0156 122.498 25.902 121.835 26.69C121.191 27.4779 120.376 28.0957 119.391 28.5434C118.406 28.991 117.305 29.2149 116.087 29.2149C114.619 29.2149 113.311 28.9015 112.165 28.2748C111.019 27.648 110.124 26.7526 109.479 25.5887C108.834 24.4247 108.512 23.0637 108.512 21.5058C108.512 19.9479 108.826 18.5869 109.452 17.4229C110.097 16.259 110.992 15.3636 112.138 14.7368C113.284 14.1101 114.601 13.7967 116.087 13.7967C117.537 13.7967 118.827 14.1011 119.955 14.71C121.083 15.3188 121.961 16.1873 122.587 17.3155C123.232 18.4436 123.554 19.7598 123.554 21.264ZM118.854 20.0553C118.854 19.2674 118.585 18.6406 118.048 18.175C117.511 17.7094 116.839 17.4767 116.033 17.4767C115.263 17.4767 114.61 17.7005 114.072 18.1482C113.553 18.5959 113.231 19.2316 113.105 20.0553H118.854ZM131.108 16.5097C131.645 15.6859 132.317 15.0413 133.122 14.5757C133.928 14.0922 134.824 13.8504 135.809 13.8504V18.7123H134.546C133.4 18.7123 132.54 18.963 131.967 19.4644C131.394 19.9479 131.108 20.8074 131.108 22.043V29H126.515V14.0116H131.108V16.5097ZM145.283 24.7022L148.533 14.0116H153.422L148.104 29H142.436L137.118 14.0116H142.033L145.283 24.7022ZM170.022 21.264C170.022 21.6938 169.995 22.1415 169.941 22.6071H159.546C159.617 23.5383 159.913 24.2546 160.432 24.756C160.969 25.2395 161.623 25.4812 162.393 25.4812C163.539 25.4812 164.336 24.9977 164.784 24.0307H169.672C169.422 25.0156 168.965 25.902 168.302 26.69C167.658 27.4779 166.843 28.0957 165.858 28.5434C164.873 28.991 163.772 29.2149 162.554 29.2149C161.086 29.2149 159.779 28.9015 158.633 28.2748C157.486 27.648 156.591 26.7526 155.946 25.5887C155.302 24.4247 154.979 23.0637 154.979 21.5058C154.979 19.9479 155.293 18.5869 155.92 17.4229C156.564 16.259 157.46 15.3636 158.606 14.7368C159.752 14.1101 161.068 13.7967 162.554 13.7967C164.005 13.7967 165.294 14.1011 166.422 14.71C167.55 15.3188 168.428 16.1873 169.055 17.3155C169.699 18.4436 170.022 19.7598 170.022 21.264ZM165.321 20.0553C165.321 19.2674 165.052 18.6406 164.515 18.175C163.978 17.7094 163.306 17.4767 162.501 17.4767C161.731 17.4767 161.077 17.7005 160.54 18.1482C160.02 18.5959 159.698 19.2316 159.573 20.0553H165.321ZM177.575 16.5097C178.112 15.6859 178.784 15.0413 179.59 14.5757C180.396 14.0922 181.291 13.8504 182.276 13.8504V18.7123H181.013C179.867 18.7123 179.008 18.963 178.435 19.4644C177.862 19.9479 177.575 20.8074 177.575 22.043V29H172.982V14.0116H177.575V16.5097ZM184.095 21.4789C184.095 19.9389 184.382 18.5869 184.955 17.4229C185.546 16.259 186.343 15.3636 187.345 14.7368C188.348 14.1101 189.467 13.7967 190.703 13.7967C191.688 13.7967 192.583 14.0026 193.389 14.4145C194.213 14.8264 194.858 15.3815 195.323 16.0799V9.1229H199.916V29H195.323V26.8511C194.893 27.5674 194.276 28.1404 193.47 28.5702C192.682 29 191.76 29.2149 190.703 29.2149C189.467 29.2149 188.348 28.9015 187.345 28.2748C186.343 27.6301 185.546 26.7258 184.955 25.5618C184.382 24.3799 184.095 23.019 184.095 21.4789ZM195.323 21.5058C195.323 20.3597 195.001 19.4554 194.356 18.7928C193.729 18.1303 192.959 17.799 192.046 17.799C191.133 17.799 190.354 18.1303 189.709 18.7928C189.082 19.4375 188.769 20.3329 188.769 21.4789C188.769 22.625 189.082 23.5383 189.709 24.2188C190.354 24.8813 191.133 25.2126 192.046 25.2126C192.959 25.2126 193.729 24.8813 194.356 24.2188C195.001 23.5562 195.323 22.6519 195.323 21.5058ZM206.087 12.4537C205.281 12.4537 204.618 12.2209 204.099 11.7553C203.597 11.2718 203.347 10.6808 203.347 9.98245C203.347 9.26616 203.597 8.67522 204.099 8.20963C204.618 7.72613 205.281 7.48438 206.087 7.48438C206.875 7.48438 207.519 7.72613 208.021 8.20963C208.54 8.67522 208.8 9.26616 208.8 9.98245C208.8 10.6808 208.54 11.2718 208.021 11.7553C207.519 12.2209 206.875 12.4537 206.087 12.4537ZM208.37 14.0116V29H203.777V14.0116H208.37ZM211.322 21.5058C211.322 19.9479 211.636 18.5869 212.263 17.4229C212.907 16.259 213.794 15.3636 214.922 14.7368C216.068 14.1101 217.375 13.7967 218.843 13.7967C220.724 13.7967 222.291 14.2892 223.544 15.2741C224.816 16.259 225.648 17.6468 226.042 19.4375H221.154C220.742 18.2914 219.945 17.7184 218.763 17.7184C217.921 17.7184 217.25 18.0497 216.748 18.7123C216.247 19.3569 215.996 20.2881 215.996 21.5058C215.996 22.7235 216.247 23.6636 216.748 24.3262C217.25 24.9709 217.921 25.2932 218.763 25.2932C219.945 25.2932 220.742 24.7202 221.154 23.5741H226.042C225.648 25.329 224.816 26.7079 223.544 27.7107C222.273 28.7135 220.706 29.2149 218.843 29.2149C217.375 29.2149 216.068 28.9015 214.922 28.2748C213.794 27.648 212.907 26.7526 212.263 25.5887C211.636 24.4247 211.322 23.0637 211.322 21.5058ZM237.39 25.1052V29H235.053C233.388 29 232.09 28.5971 231.158 27.7913C230.227 26.9675 229.762 25.6334 229.762 23.789V17.8258H227.935V14.0116H229.762V10.3585H234.355V14.0116H237.363V17.8258H234.355V23.8427C234.355 24.2904 234.462 24.6127 234.677 24.8097C234.892 25.0067 235.25 25.1052 235.752 25.1052H237.39Z" fill="#1935CA"/>
<path fill-rule="evenodd" clip-rule="evenodd" d="M20.6382 9.69727V9.8838V11.1895H21.1978V14.1835C19.6437 14.2805 18.3998 15.571 18.3998 17.1447V18.6508H17.6537C17.4969 18.6508 17.3515 18.6999 17.231 18.7834L14.4731 17.2511C14.4784 17.2206 14.4826 17.1904 14.4826 17.1585C14.4826 16.9172 14.3256 16.711 14.1095 16.6332V14.5471H14.6691V13.0548H13.1769V13.2414V14.5471H13.7365V16.6332C13.5205 16.711 13.3634 16.9172 13.3634 17.1585C13.3634 17.4654 13.6162 17.7181 13.923 17.7181C14.0636 17.7181 14.1915 17.663 14.2903 17.576L16.9848 19.0734C16.9369 19.1717 16.9075 19.2809 16.9075 19.3969V22.1949H11.6846V21.6353H10.1924V21.8218V23.1276H11.6846V22.568H16.9075V23.1276V23.8678L14.291 25.3222C14.1921 25.2347 14.0641 25.1794 13.923 25.1794C13.6162 25.1794 13.3634 25.4321 13.3634 25.739C13.3634 25.9803 13.5205 26.1858 13.7365 26.2636V28.3504H13.1769V28.537V29.8427H14.6691V28.3504H14.1095V26.2636C14.3256 26.1858 14.4826 25.9803 14.4826 25.739C14.4826 25.7076 14.4782 25.6772 14.4731 25.6472L16.9075 24.2948V25.739V26.1121C16.9075 26.5222 17.2435 26.8582 17.6537 26.8582H21.1978V30.5888H20.6382V30.7754V32.0811H22.1304V30.5888H21.5708V26.8582H25.1149C25.5251 26.8582 25.861 26.5222 25.861 26.1121V24.2948L28.2954 25.6472C28.2904 25.6772 28.286 25.7076 28.286 25.739C28.286 25.9803 28.443 26.1858 28.659 26.2636V28.3504H28.0994V28.537V29.8427H29.5917V28.3504H29.0321V26.2636C29.2481 26.1858 29.4052 25.9803 29.4052 25.739C29.4052 25.4321 29.1524 25.1794 28.8456 25.1794C28.7049 25.1794 28.5771 25.2344 28.4783 25.3215L25.861 23.8686V22.568H31.0839V23.1276H32.5762V21.6353H31.0839V21.8218V22.1949H25.861V19.3969C25.861 19.2809 25.8317 19.1717 25.7838 19.0734L28.4791 17.576C28.5778 17.6628 28.7052 17.7181 28.8456 17.7181C29.1524 17.7181 29.4052 17.4654 29.4052 17.1585C29.4052 16.9172 29.2481 16.711 29.0321 16.6332V14.5471H29.5917V13.0548H28.0994V13.2414V14.5471H28.659V16.6332C28.443 16.711 28.286 16.9172 28.286 17.1585C28.286 17.1904 28.2902 17.2206 28.2954 17.2511L25.5375 18.7834C25.4171 18.6999 25.2717 18.6508 25.1149 18.6508H19.8898V17.1476C19.8898 16.3158 20.5394 15.6663 21.3836 15.6663C22.2251 15.6663 22.8727 16.3121 22.8765 17.1403V17.1585C22.8765 17.5687 23.2125 17.9047 23.6227 17.9047C24.0328 17.9047 24.3688 17.5687 24.3688 17.1585V17.1032C24.369 17.0887 24.3675 17.0743 24.3644 17.0602C24.3205 15.5252 23.0967 14.2787 21.5708 14.1835V11.1895H22.1304V9.69727H20.6382ZM21.0112 10.0703H21.7574V10.8165H21.0112V10.0703ZM13.55 13.4279H14.2961V14.174H13.55V13.4279ZM28.4725 13.4279H29.2186V14.174H28.4725V13.4279ZM21.3843 14.5471C22.8228 14.5471 23.9957 15.7122 23.9957 17.1447V17.1585C23.9957 17.3685 23.8326 17.5316 23.6227 17.5316C23.4128 17.5316 23.2496 17.3685 23.2496 17.1585V17.1476H23.2503C23.2503 17.1427 23.2496 17.1379 23.2496 17.133V17.1032C23.2498 17.09 23.2486 17.0768 23.246 17.0638C23.2022 16.0741 22.3938 15.2932 21.3836 15.2932C20.3448 15.2932 19.5168 16.1183 19.5168 17.1476V18.6508H18.7728V17.1447C18.7728 15.7122 19.9457 14.5471 21.3843 14.5471ZM13.923 16.972C14.0282 16.972 14.1095 17.0533 14.1095 17.1585C14.1095 17.2638 14.0282 17.3451 13.923 17.3451C13.8178 17.3451 13.7365 17.2638 13.7365 17.1585C13.7365 17.0533 13.8178 16.972 13.923 16.972ZM28.8456 16.972C28.9508 16.972 29.0321 17.0533 29.0321 17.1585C29.0321 17.2638 28.9508 17.3451 28.8456 17.3451C28.7403 17.3451 28.659 17.2638 28.659 17.1585C28.659 17.0533 28.7403 16.972 28.8456 16.972ZM17.6537 19.0239H25.1149C25.3248 19.0239 25.488 19.187 25.488 19.3969V23.1276H17.2806V19.3969C17.2806 19.187 17.4437 19.0239 17.6537 19.0239ZM21.3843 19.77C20.8714 19.77 20.4516 20.1898 20.4516 20.7026C20.4519 20.9898 20.6031 21.2408 20.8247 21.416V22.7538H21.9439V21.4152C22.1653 21.2403 22.3164 20.9895 22.3169 20.7026C22.3169 20.1898 21.8972 19.77 21.3843 19.77ZM21.3843 20.143C21.6956 20.143 21.9439 20.3914 21.9439 20.7026C21.9435 20.9025 21.8372 21.0865 21.6641 21.1865L21.5708 21.2404V22.3814H21.1978V21.2411L21.1045 21.1872C20.9312 21.0871 20.8248 20.9027 20.8247 20.7026C20.8247 20.3914 21.073 20.143 21.3843 20.143ZM10.5654 22.0084H11.3116V22.1949V22.568V22.7545H10.5654V22.0084ZM31.457 22.0084H32.2031V22.7545H31.457V22.0084ZM17.2806 23.5006H25.488V25.3659H17.2806V23.5006ZM17.8402 23.8737V24.0602V24.9929H18.9594V23.8737H17.8402ZM19.3324 23.8737V24.0602V24.9929H20.4516V23.8737H19.3324ZM20.8247 23.8737V24.0602V24.9929H21.9439V23.8737H20.8247ZM22.3169 23.8737V24.0602V24.9929H23.4361V23.8737H22.3169ZM23.8092 23.8737V24.0602V24.9929H24.9284V23.8737H23.8092ZM18.2132 24.2467H18.5863V24.6198H18.2132V24.2467ZM19.7055 24.2467H20.0786V24.6198H19.7055V24.2467ZM21.1978 24.2467H21.5708V24.6198H21.1978V24.2467ZM22.69 24.2467H23.0631V24.6198H22.69V24.2467ZM24.1823 24.2467H24.5553V24.6198H24.1823V24.2467ZM13.923 25.5525C14.0282 25.5525 14.1095 25.6338 14.1095 25.739C14.1095 25.8442 14.0282 25.9255 13.923 25.9255C13.8178 25.9255 13.7365 25.8442 13.7365 25.739C13.7365 25.6338 13.8178 25.5525 13.923 25.5525ZM28.8456 25.5525C28.9508 25.5525 29.0321 25.6338 29.0321 25.739C29.0321 25.8442 28.9508 25.9255 28.8456 25.9255C28.7403 25.9255 28.659 25.8442 28.659 25.739C28.659 25.6338 28.7403 25.5525 28.8456 25.5525ZM17.2806 25.739H25.488V26.1121C25.488 26.322 25.3248 26.4851 25.1149 26.4851H17.6537C17.4437 26.4851 17.2806 26.322 17.2806 26.1121V25.739ZM13.55 28.7235H14.2961V29.4696H13.55V28.7235ZM28.4725 28.7235H29.2186V29.4696H28.4725V28.7235ZM21.0112 30.9619H21.7574V31.708H21.0112V30.9619Z" fill="white"/>
</svg>
