<svg width="143" height="176" viewBox="0 0 143 176" fill="none" xmlns="http://www.w3.org/2000/svg">
<path d="M45.8846 143.549C44.4045 142.631 44.193 137.675 50.3251 136.757C54.1312 136.206 64.7038 139.51 69.5672 141.713C69.9901 143.549 70.2015 145.201 68.9328 146.669C67.4527 148.138 64.9152 148.321 62.8007 148.138C58.7832 147.771 48.4221 145.201 45.8846 143.549Z" fill="#D58F77"/>
<path d="M75.488 139.51C73.5849 138.041 74.4307 132.901 79.2941 132.718C82.8888 132.718 88.3865 138.775 92.827 141.162C93.0384 142.814 93.0384 144.466 91.5582 145.751C90.0781 147.036 87.7521 146.852 85.6376 146.485C82.043 145.934 77.6025 141.345 75.488 139.51Z" fill="#D58F77"/>
<path d="M46.0959 142.079C44.6157 141.162 44.1928 137.123 50.3249 136.389C54.131 135.838 64.7036 138.224 69.567 140.427C69.9899 142.263 70.2013 143.915 68.9326 145.384C67.4524 146.852 64.915 147.036 62.8005 146.852C58.783 146.118 48.6333 143.731 46.0959 142.079Z" fill="#263045"/>
<path d="M75.4875 137.674C74.2188 136.573 74.2188 132.901 80.1395 132.718C83.7341 132.534 88.5975 137.123 92.8265 139.51C93.038 141.162 93.038 142.814 91.5578 144.099C90.0777 145.384 87.7517 145.2 85.6372 144.833C82.0425 144.099 77.6021 139.51 75.4875 137.674Z" fill="#263045"/>
<path d="M70.4131 110.507C67.8757 111.424 65.9726 113.26 65.5497 115.463C62.5894 125.926 58.3604 138.959 58.3604 140.978C58.1489 142.814 61.1092 144.283 63.0123 144.65C67.0299 145.384 68.0871 144.833 69.3558 143.548C69.9902 142.814 79.7169 122.622 82.8887 105.55C78.8711 108.12 74.6421 109.038 70.4131 110.507Z" fill="#1E2940"/>
<path d="M82.6773 103.347C83.1002 119.685 81.4086 138.959 82.0429 140.978C83.3116 143.732 91.9811 144.283 92.6155 141.896C92.8269 140.795 96.8445 120.419 96.633 98.9419C91.7697 101.328 87.3292 100.41 82.6773 103.347Z" fill="#1F2A40"/>
<path d="M129.196 125.191L82.8886 101.879L82.6772 45.8911L128.985 69.2039L129.196 125.191Z" fill="#C6C6C6"/>
<path d="M46.3078 105.183L0 81.8701L89.2323 37.2637L135.54 60.3929L46.3078 105.183Z" fill="white"/>
<path d="M46.3078 166.494L0.211451 143.365L0 81.8701L46.3078 105.183V166.494Z" fill="#EBECF3"/>
<path d="M135.54 60.3931V121.887L129.196 125.192L128.985 69.2042L52.6512 107.386L52.8626 163.373L46.3076 166.494V105.183L135.54 60.3931Z" fill="#DDDDE1"/>
<path d="M106.148 66.8179L86.2717 56.9054V54.519L106.148 64.6151V66.8179Z" fill="#3A4B8F"/>
<path d="M106.668 63.5357L86.7919 53.6232L101.285 46.2588L121.161 56.1713L106.668 63.5357Z" fill="#5971CF"/>
<path d="M106.148 64.6155L86.2717 54.703C86.2717 54.3358 86.6946 53.7851 87.1175 53.6016L106.994 63.5141C106.36 63.6977 106.148 64.0648 106.148 64.6155Z" fill="#4C61B4"/>
<path d="M106.782 67.1853C106.359 67.3689 105.936 67.1853 105.936 66.8182V64.4318C105.936 64.0647 106.359 63.514 106.782 63.3304L121.161 56.1714V56.5385L120.738 56.7221L119.892 58.3742L120.738 59.6591L121.161 59.8427V60.0263L106.782 67.1853Z" fill="#4F63A3"/>
<path d="M106.359 66.8183C106.359 67.0018 106.359 67.0018 106.359 67.0018H106.571L120.949 59.8428L120.526 59.6592L119.681 58.5578L120.526 56.7222L106.782 63.6977C106.571 63.6977 106.359 63.8812 106.359 64.0648C106.148 64.2484 106.148 64.4319 106.148 64.6155L106.359 66.8183Z" fill="#5E71BA"/>
<path d="M120.738 56.7222L106.993 63.6977C106.782 63.6977 106.57 63.8812 106.57 64.0648C106.359 64.2484 106.359 64.4319 106.359 64.6155V66.8183L120.738 59.6592V56.7222Z" fill="#FFFFFA"/>
<path d="M106.571 62.5958L86.6944 52.4997V50.2969L106.571 60.2094V62.5958Z" fill="#1935CA"/>
<path d="M107.417 59.1082L87.5407 49.1956L101.708 41.853L121.584 51.9491L107.417 59.1082Z" fill="#1935CA"/>
<path d="M106.571 60.2097L86.6944 50.2972C86.6944 49.9301 87.1173 49.3794 87.5402 49.1958L107.417 59.1083C106.994 59.2919 106.571 59.8426 106.571 60.2097Z" fill="#1935CA"/>
<path d="M107.417 62.9631C106.994 63.1467 106.571 62.9631 106.571 62.596V60.2097C106.571 59.8425 106.994 59.2918 107.417 59.1083L121.796 51.9492V52.3164L121.373 52.4999L120.527 54.152L121.373 55.437L121.796 55.6205V55.8041L107.417 62.9631Z" fill="#1935CA"/>
<path d="M106.783 62.5961C106.783 62.7797 106.783 62.7797 106.783 62.7797H106.994L121.373 55.6206L120.95 55.437L120.104 54.3357L120.95 52.5L107.206 59.4755C106.994 59.4755 106.783 59.6591 106.783 59.8426C106.571 60.0262 106.571 60.2098 106.571 60.3933L106.783 62.5961Z" fill="#1935CA"/>
<path d="M121.161 52.3164L107.416 59.2919C107.205 59.2919 106.994 59.4755 106.994 59.659C106.782 59.8426 106.782 60.0262 106.782 60.2097V62.4125L121.161 55.2535V52.3164Z" fill="#FFFFFA"/>
<path d="M96.2098 48.6451L101.073 46.2588L100.862 46.0752L95.9983 48.4615L96.2098 48.6451Z" fill="#E9BFE1"/>
<path d="M96.2101 50.1131L103.822 46.2582L103.399 45.8911L95.7872 49.746L96.2101 50.1131Z" fill="#E9BFE1"/>
<path d="M97.4787 50.6639L105.091 46.8091L104.668 46.6255L97.0558 50.4804L97.4787 50.6639Z" fill="#E9BFE1"/>
<path d="M98.3248 69.0212L88.8095 64.2485C88.598 64.0649 88.1751 64.0649 87.9637 64.2485L58.3605 79.1173C58.1491 79.1173 58.1491 79.3009 58.1491 79.3009V80.4023C58.1491 80.4023 58.1491 80.5858 58.3605 80.5858L67.8758 85.3585C68.0873 85.5421 68.5102 85.5421 68.7216 85.3585L98.3248 70.4897C98.5362 70.4897 98.5362 70.3062 98.5362 70.3062V69.3883C98.3248 69.0212 98.3248 69.0212 98.3248 69.0212Z" fill="#172030"/>
<path d="M67.6644 74.3447L58.1491 79.1174C57.9377 79.1174 57.9377 79.301 57.9377 79.301V80.4024C57.9377 80.4024 57.9377 80.586 58.1491 80.586L67.6644 85.3587V74.3447Z" fill="#172030"/>
<path d="M98.3246 69.3878L68.7215 84.2566C68.51 84.4402 68.0871 84.4402 67.8756 84.2566L58.3604 79.4839C58.1489 79.3004 58.1489 79.1168 58.3604 78.9332L87.9635 64.0644C88.1749 63.8809 88.5979 63.8809 88.8093 64.0644L98.3246 68.8371C98.5361 69.0207 98.5361 69.2043 98.3246 69.3878Z" fill="#1E2A3D"/>
<path opacity="0.9" d="M62.1668 79.4841L60.8981 80.0348C60.6866 80.0348 60.4752 80.0348 60.4752 80.0348L59.2065 79.4841C58.995 79.4841 58.995 79.3006 59.2065 79.3006L60.4752 78.7499C60.6866 78.7499 60.8981 78.7499 60.8981 78.7499L61.9553 79.3006C62.1668 79.3006 62.1668 79.3006 62.1668 79.4841ZM64.2813 78.1992L63.224 77.6485C63.0126 77.6485 62.8011 77.6485 62.8011 77.6485L61.321 78.1992C61.1095 78.1992 61.1095 78.3828 61.321 78.3828L62.3782 78.9335C62.5897 78.9335 62.8011 78.9335 62.8011 78.9335L64.0698 78.3828C64.2813 78.3828 64.2813 78.1992 64.2813 78.1992ZM66.1843 77.0978L65.1271 76.5471C64.9156 76.5471 64.7042 76.5471 64.7042 76.5471L63.4355 77.2814C63.224 77.2814 63.224 77.4649 63.4355 77.4649L64.4927 78.0156C64.7042 78.0156 64.9156 78.0156 64.9156 78.0156L66.1843 77.4649C66.3958 77.2814 66.3958 77.0978 66.1843 77.0978ZM68.2988 76.18L67.2416 75.6293C67.0301 75.6293 66.8187 75.6293 66.8187 75.6293L65.55 76.18C65.3385 76.18 65.3385 76.3635 65.55 76.3635L66.6072 76.9142C66.8187 76.9142 67.0301 76.9142 67.0301 76.9142L68.2988 76.3635C68.5103 76.18 68.5103 76.18 68.2988 76.18ZM70.4134 75.0786L69.3561 74.5279C69.1447 74.5279 68.9332 74.5279 68.9332 74.5279L67.6645 75.0786C67.453 75.0786 67.453 75.2621 67.6645 75.2621L68.7218 75.8128C68.9332 75.8128 69.1447 75.8128 69.1447 75.8128L70.4134 75.2621V75.0786ZM72.5279 73.9772L71.4706 73.4265C71.2592 73.4265 71.0477 73.4265 71.0477 73.4265L69.779 73.9772C69.5676 73.9772 69.5676 74.1608 69.779 74.1608L70.8363 74.7115C71.0477 74.7115 71.2592 74.7115 71.2592 74.7115L72.5279 74.1608C72.5279 74.1608 72.5279 74.1608 72.5279 73.9772ZM74.4309 73.0594L73.3737 72.5087C73.1622 72.5087 72.9508 72.5087 72.9508 72.5087L71.6821 73.0594C71.4706 73.0594 71.4706 73.2429 71.6821 73.2429L72.7393 73.7936C72.9508 73.7936 73.1622 73.7936 73.1622 73.7936L74.4309 73.2429C74.6424 73.0594 74.6424 73.0594 74.4309 73.0594ZM76.5454 71.958L75.4882 71.4073C75.2767 71.4073 75.0653 71.4073 75.0653 71.4073L73.7966 71.958C73.5851 71.958 73.5851 72.1415 73.7966 72.1415L74.8538 72.6922C75.0653 72.6922 75.2767 72.6922 75.2767 72.6922L76.5454 72.1415C76.7569 72.1415 76.7569 71.958 76.5454 71.958ZM78.66 70.8566L77.6027 70.3059C77.3912 70.3059 77.1798 70.3059 77.1798 70.3059L75.9111 70.8566C75.6996 70.8566 75.6996 71.0401 75.9111 71.0401L76.9683 71.5908C77.1798 71.5908 77.3912 71.5908 77.3912 71.5908L78.66 71.0401C78.8714 71.0401 78.8714 71.0401 78.66 70.8566ZM81.4088 69.5716L80.3516 69.0209C80.1401 69.0209 79.9287 69.0209 79.9287 69.0209L78.0256 69.9387C77.8141 69.9387 77.8141 70.1223 78.0256 70.1223L79.0829 70.673C79.2943 70.673 79.5058 70.673 79.5058 70.673L81.4088 69.7552V69.5716ZM90.2898 70.8566L89.2325 70.3059C89.0211 70.3059 88.8096 70.3059 88.8096 70.3059L87.5409 70.8566C87.3294 70.8566 87.3294 71.0401 87.5409 71.0401L88.5982 71.5908C88.8096 71.5908 89.021 71.5908 89.021 71.5908L90.2898 71.0401C90.2898 70.8566 90.2898 70.8566 90.2898 70.8566ZM92.4043 69.7552L91.347 69.2045C91.1356 69.2045 90.9241 69.2045 90.9241 69.2045L89.444 69.7552C89.2325 69.7552 89.2325 69.9387 89.444 69.9387L90.5012 70.4894C90.7127 70.4894 90.9241 70.4894 90.9241 70.4894L92.1928 69.9387C92.4043 69.9387 92.4043 69.7552 92.4043 69.7552ZM94.3073 68.6538L93.2501 68.1031C93.0386 68.1031 92.8272 68.1031 92.8272 68.1031L91.5585 68.6538C91.347 68.6538 91.347 68.8374 91.5585 68.8374L92.6157 69.3881C92.8272 69.3881 93.0386 69.3881 93.0386 69.3881L94.3073 68.8374C94.5188 68.8374 94.5188 68.8374 94.3073 68.6538ZM92.1928 71.7744L91.1356 71.2237C90.9241 71.2237 90.7127 71.2237 90.7127 71.2237L89.444 71.7744C89.2325 71.7744 89.2325 71.958 89.444 71.958L90.5012 72.5087C90.7127 72.5087 90.9241 72.5087 90.9241 72.5087L92.1928 71.958V71.7744ZM94.3073 70.673L93.0386 70.1223C92.8272 70.1223 92.6157 70.1223 92.6157 70.1223L91.347 70.673C91.1356 70.673 91.1356 70.8566 91.347 70.8566L92.4043 71.4073C92.6157 71.4073 92.8272 71.4073 92.8272 71.4073L94.0959 70.8566C94.3073 70.8566 94.3073 70.673 94.3073 70.673ZM96.2104 69.5716L95.1531 69.0209C94.9417 69.0209 94.7302 69.0209 94.7302 69.0209L93.4615 69.7552C93.2501 69.7552 93.2501 69.9387 93.4615 69.9387L94.5188 70.4894C94.7302 70.4894 94.9417 70.4894 94.9417 70.4894L96.2104 69.9387C96.4218 69.7552 96.4218 69.7552 96.2104 69.5716ZM64.7042 79.8513L63.6469 79.3006C63.4355 79.3006 63.224 79.3006 63.224 79.3006L61.321 80.2184C61.1095 80.2184 61.1095 80.402 61.321 80.402L62.3782 80.9527C62.5897 80.9527 62.8011 80.9527 62.8011 80.9527L64.7042 80.0348C64.9156 80.0348 64.9156 79.8513 64.7042 79.8513ZM66.8187 78.7499L65.7614 78.1992C65.55 78.1992 65.3385 78.1992 65.3385 78.1992L64.0698 78.9335C63.8584 78.9335 63.8584 79.117 64.0698 79.117L65.1271 79.6677C65.3385 79.6677 65.55 79.6677 65.55 79.6677L66.8187 79.117C66.8187 78.9335 66.8187 78.7499 66.8187 78.7499ZM68.9332 77.6485L67.6645 77.0978C67.453 77.0978 67.2416 77.0978 67.2416 77.0978L65.9729 77.6485C65.7614 77.6485 65.7614 77.8321 65.9729 77.8321L67.0301 78.3828C67.2416 78.3828 67.453 78.3828 67.453 78.3828L68.7218 77.8321C68.9332 77.8321 68.9332 77.8321 68.9332 77.6485ZM70.8363 76.7307L69.779 76.18C69.5676 76.18 69.3561 76.18 69.3561 76.18L68.0874 76.7307C67.8759 76.7307 67.8759 76.9142 68.0874 76.9142L69.1447 77.4649C69.3561 77.4649 69.5676 77.4649 69.5676 77.4649L70.8363 76.9142C71.0477 76.9142 71.0477 76.7307 70.8363 76.7307ZM72.9508 75.6293L71.8935 75.0786C71.6821 75.0786 71.4706 75.0786 71.4706 75.0786L70.2019 75.6293C69.9905 75.6293 69.9905 75.8128 70.2019 75.8128L71.2592 76.3635C71.4706 76.3635 71.6821 76.3635 71.6821 76.3635L72.9508 75.8128C73.1622 75.8128 73.1622 75.6293 72.9508 75.6293ZM75.0653 74.7115L74.008 74.1608C73.7966 74.1608 73.5851 74.1608 73.5851 74.1608L72.3164 74.7115C72.105 74.7115 72.105 74.895 72.3164 74.895L73.3737 75.4457C73.5851 75.4457 73.7966 75.4457 73.7966 75.4457L75.0653 74.895C75.0653 74.7114 75.0653 74.7115 75.0653 74.7115ZM77.1798 73.6101L76.1225 73.0594C75.9111 73.0594 75.6996 73.0594 75.6996 73.0594L74.4309 73.6101C74.2195 73.6101 74.2195 73.7936 74.4309 73.7936L75.4882 74.3443C75.6996 74.3443 75.9111 74.3443 75.9111 74.3443L77.1798 73.7936V73.6101ZM79.0829 72.5087L78.0256 71.958C77.8141 71.958 77.6027 71.958 77.6027 71.958L76.334 72.5087C76.1225 72.5087 76.1225 72.6922 76.334 72.6922L77.3912 73.2429C77.6027 73.2429 77.8141 73.2429 77.8141 73.2429L79.0829 72.6922C79.2943 72.6922 79.2943 72.6922 79.0829 72.5087ZM81.1974 71.5908L80.1401 71.0401C79.9287 71.0401 79.7172 71.0401 79.7172 71.0401L78.4485 71.5908C78.237 71.5908 78.237 71.7744 78.4485 71.7744L79.5058 72.3251C79.7172 72.3251 79.9287 72.3251 79.9287 72.3251L81.1974 71.7744C81.4088 71.5908 81.4088 71.5908 81.1974 71.5908ZM83.3119 70.4894L82.2546 69.9387C82.0432 69.9387 81.8317 69.9387 81.8317 69.9387L80.563 70.4894C80.3516 70.4894 80.3516 70.673 80.563 70.673L81.6203 71.2237C81.8317 71.2237 82.0432 71.2237 82.0432 71.2237L83.3119 70.673C83.5233 70.673 83.5233 70.4894 83.3119 70.4894ZM65.9729 81.1362L64.9156 80.5855C64.7042 80.5855 64.4927 80.5855 64.4927 80.5855L63.224 81.1362C63.0126 81.1362 63.0126 81.3198 63.224 81.3198L64.2813 81.8705C64.4927 81.8705 64.7042 81.8705 64.7042 81.8705L65.9729 81.3198V81.1362ZM67.8759 80.0348L66.8187 79.4841C66.6072 79.4841 66.3958 79.4841 66.3958 79.4841L65.1271 80.0348C64.9156 80.0348 64.9156 80.2184 65.1271 80.2184L66.1843 80.7691C66.3958 80.7691 66.6072 80.7691 66.6072 80.7691L67.8759 80.2184C68.0874 80.2184 68.0874 80.0348 67.8759 80.0348ZM69.9905 78.9335L68.9332 78.3828C68.7217 78.3828 68.5103 78.3828 68.5103 78.3828L67.2416 78.9335C67.0301 78.9335 67.0301 79.117 67.2416 79.117L68.2988 79.6677C68.5103 79.6677 68.7218 79.6677 68.7218 79.6677L69.9905 79.117C70.2019 79.117 70.2019 79.117 69.9905 78.9335ZM72.105 78.0156L71.0477 77.4649C70.8363 77.4649 70.6248 77.4649 70.6248 77.4649L69.3561 78.0156C69.1447 78.0156 69.1447 78.1992 69.3561 78.1992L70.4134 78.7499C70.6248 78.7499 70.8363 78.7499 70.8363 78.7499L72.105 78.1992V78.0156ZM69.5676 82.9719L68.5103 82.4212C68.2989 82.4212 68.0874 82.4212 68.0874 82.4212L66.8187 82.9719C66.6072 82.9719 66.6072 83.1555 66.8187 83.1555L67.8759 83.7062C68.0874 83.7062 68.2988 83.7062 68.2988 83.7062L69.5676 83.1555C69.779 83.1555 69.779 82.9719 69.5676 82.9719ZM71.6821 81.8705L70.6248 81.3198C70.4134 81.3198 70.2019 81.3198 70.2019 81.3198L68.9332 81.8705C68.7217 81.8705 68.7217 82.0541 68.9332 82.0541L69.9905 82.6048C70.2019 82.6048 70.4134 82.6048 70.4134 82.6048L71.6821 82.0541C71.8935 82.0541 71.8935 82.0541 71.6821 81.8705ZM73.7966 80.9527L72.7393 80.402C72.5279 80.402 72.3164 80.402 72.3164 80.402L71.0477 80.9527C70.8363 80.9527 70.8363 81.1362 71.0477 81.1362L72.105 81.6869C72.3164 81.6869 72.5279 81.6869 72.5279 81.6869L73.7966 81.1362V80.9527ZM75.9111 79.8513L74.8538 79.3006C74.6424 79.3006 74.4309 79.3006 74.4309 79.3006L73.1622 79.8513C72.9508 79.8513 72.9508 80.0348 73.1622 80.0348L74.008 80.7691C74.2195 80.7691 74.4309 80.7691 74.4309 80.7691L75.6996 80.2184C75.9111 80.0348 75.9111 79.8513 75.9111 79.8513ZM88.8096 73.2429L87.7523 72.6922C87.5409 72.6922 87.3294 72.6922 87.3294 72.6922L85.4264 73.6101C85.2149 73.6101 85.2149 73.7936 85.4264 73.7936L86.4836 74.3443C86.6951 74.3443 86.9065 74.3443 86.9065 74.3443L88.8096 73.4265C89.0211 73.4265 89.0211 73.4265 88.8096 73.2429ZM74.2195 76.9142L73.1622 76.3635C72.9508 76.3635 72.7393 76.3635 72.7393 76.3635L71.2592 77.0978C71.0477 77.0978 71.0477 77.2814 71.2592 77.2814L72.3164 77.8321C72.5279 77.8321 72.7393 77.8321 72.7393 77.8321L74.008 77.2814C74.2195 77.0978 74.2195 76.9142 74.2195 76.9142ZM76.1225 75.8128L75.0653 75.2621C74.8538 75.2621 74.6424 75.2621 74.6424 75.2621L73.3737 75.8128C73.1622 75.8128 73.1622 75.9964 73.3737 75.9964L74.4309 76.5471C74.6424 76.5471 74.8538 76.5471 74.8538 76.5471L76.1225 75.9964C76.334 75.9964 76.334 75.9964 76.1225 75.8128ZM78.237 74.895L77.1798 74.3443C76.9683 74.3443 76.7569 74.3443 76.7569 74.3443L75.4882 74.895C75.2767 74.895 75.2767 75.0786 75.4882 75.0786L76.5454 75.6293C76.7569 75.6293 76.9683 75.6293 76.9683 75.6293L78.237 75.0786C78.4485 75.0786 78.4485 74.895 78.237 74.895ZM80.3516 73.7936L79.2943 73.2429C79.0829 73.2429 78.8714 73.2429 78.8714 73.2429L77.6027 73.7936C77.3912 73.7936 77.3912 73.9772 77.6027 73.9772L78.66 74.5279C78.8714 74.5279 79.0829 74.5279 79.0829 74.5279L80.3516 73.9772C80.3516 73.9772 80.3516 73.9772 80.3516 73.7936ZM82.4661 72.8758L81.4088 72.3251C81.1974 72.3251 80.9859 72.3251 80.9859 72.3251L79.7172 72.8758C79.5058 72.8758 79.5058 73.0594 79.7172 73.0594L80.7745 73.6101C80.9859 73.6101 81.1974 73.6101 81.1974 73.6101L82.4661 73.0594C82.4661 72.8758 82.4661 72.8758 82.4661 72.8758ZM85.2149 71.4073L84.1577 70.8566C83.9462 70.8566 83.7348 70.8566 83.7348 70.8566L81.8317 71.7744C81.6203 71.7744 81.6203 71.958 81.8317 71.958L82.889 72.5087C83.1004 72.5087 83.3119 72.5087 83.3119 72.5087L85.2149 71.5908V71.4073ZM68.5103 81.6869L67.453 81.1362C67.2416 81.1362 67.0301 81.1362 67.0301 81.1362L65.1271 82.0541C64.9156 82.0541 64.9156 82.2376 65.1271 82.2376L66.1843 82.7883C66.3958 82.7883 66.6072 82.7883 66.6072 82.7883L68.5103 81.8705V81.6869ZM70.6248 80.5855L69.5676 80.0348C69.3561 80.0348 69.1447 80.0348 69.1447 80.0348L67.6645 80.7691C67.453 80.7691 67.453 80.9527 67.6645 80.9527L68.7218 81.5034C68.9332 81.5034 69.1447 81.5034 69.1447 81.5034L70.4134 80.9527C70.6248 80.7691 70.6248 80.7691 70.6248 80.5855ZM72.5279 79.6677L71.4706 79.117C71.2592 79.117 71.0477 79.117 71.0477 79.117L69.779 79.6677C69.5676 79.6677 69.5676 79.8513 69.779 79.8513L70.8363 80.402C71.0477 80.402 71.2592 80.402 71.2592 80.402L72.5279 79.8513C72.7393 79.8513 72.7393 79.6677 72.5279 79.6677ZM74.6424 78.5663L73.5851 78.0156C73.3737 78.0156 73.1622 78.0156 73.1622 78.0156L71.8935 78.7499C71.6821 78.7499 71.6821 78.9335 71.8935 78.9335L72.9508 79.4841C73.1622 79.4841 73.3737 79.4841 73.3737 79.4841L74.6424 78.9335C74.8538 78.7499 74.8538 78.5663 74.6424 78.5663ZM76.7569 77.4649L75.6996 76.9142C75.4882 76.9142 75.2767 76.9142 75.2767 76.9142L74.008 77.6485C73.7966 77.6485 73.7966 77.8321 74.008 77.8321L75.0653 78.3828C75.2767 78.3828 75.4882 78.3828 75.4882 78.3828L76.7569 77.8321C76.7569 77.6485 76.7569 77.6485 76.7569 77.4649ZM86.2722 74.7115L85.2149 74.1608C85.0035 74.1608 84.792 74.1608 84.792 74.1608L75.0653 78.9335C74.8538 78.9335 74.8538 79.117 75.0653 79.117L76.1225 79.6677C76.334 79.6677 76.5454 79.6677 76.5454 79.6677L86.0607 74.895C86.2722 74.895 86.2722 74.7115 86.2722 74.7115ZM78.8714 76.5471L77.8141 75.9964C77.6027 75.9964 77.3912 75.9964 77.3912 75.9964L76.1225 76.5471C75.9111 76.5471 75.9111 76.7307 76.1225 76.7307L77.1798 77.2814C77.3912 77.2814 77.6027 77.2814 77.6027 77.2814L78.8714 76.7307V76.5471ZM80.7745 75.4457L79.7172 74.895C79.5058 74.895 79.2943 74.895 79.2943 74.895L78.0256 75.4457C77.8141 75.4457 77.8141 75.6293 78.0256 75.6293L79.0829 76.18C79.2943 76.18 79.5058 76.18 79.5058 76.18L80.7745 75.6293C80.9859 75.6293 80.9859 75.4457 80.7745 75.4457ZM82.889 74.3443L81.8317 73.7936C81.6203 73.7936 81.4088 73.7936 81.4088 73.7936L80.1401 74.3443C79.9287 74.3443 79.9287 74.5279 80.1401 74.5279L81.1974 75.0786C81.4088 75.0786 81.6203 75.0786 81.6203 75.0786L82.889 74.5279C83.1004 74.5279 83.1004 74.5279 82.889 74.3443ZM85.0035 73.4265L83.9462 72.8758C83.7348 72.8758 83.5233 72.8758 83.5233 72.8758L82.2546 73.4265C82.0432 73.4265 82.0432 73.6101 82.2546 73.6101L83.3119 74.1608C83.5233 74.1608 83.7348 74.1608 83.7348 74.1608L85.0035 73.6101C85.2149 73.6101 85.2149 73.4265 85.0035 73.4265ZM87.118 72.3251L86.0607 71.7744C85.8493 71.7744 85.6378 71.7744 85.6378 71.7744L84.3691 72.3251C84.1577 72.3251 84.1577 72.5087 84.3691 72.5087L85.4264 73.0594C85.6378 73.0594 85.8493 73.0594 85.8493 73.0594L87.118 72.5087C87.118 72.5087 87.118 72.5087 87.118 72.3251ZM84.5806 67.9195L83.5233 67.3688C83.3119 67.3688 83.1004 67.3688 83.1004 67.3688L81.8317 67.9195C81.6203 67.9195 81.6203 68.1031 81.8317 68.1031L82.889 68.6538C83.1004 68.6538 83.3119 68.6538 83.3119 68.6538L84.5806 68.1031C84.792 68.1031 84.792 67.9195 84.5806 67.9195ZM86.6951 66.8181L85.6378 66.2674C85.4264 66.2674 85.2149 66.2674 85.2149 66.2674L83.9462 66.8181C83.7348 66.8181 83.7348 67.0017 83.9462 67.0017L85.0035 67.5524C85.2149 67.5524 85.4264 67.5524 85.4264 67.5524L86.6951 67.0017C86.6951 67.0017 86.6951 67.0017 86.6951 66.8181ZM88.8096 65.9003L87.7523 65.3496C87.5409 65.3496 87.3294 65.3496 87.3294 65.3496L86.0607 65.9003C85.8493 65.9003 85.8493 66.0839 86.0607 66.0839L87.118 66.6346C87.3294 66.6346 87.5409 66.6346 87.5409 66.6346L88.8096 66.0839V65.9003ZM90.7127 66.8181L89.6554 66.2674C89.444 66.2674 89.2325 66.2674 89.2325 66.2674L87.9638 66.8181C87.7523 66.8181 87.7523 67.0017 87.9638 67.0017L89.021 67.5524C89.2325 67.5524 89.444 67.5524 89.444 67.5524L90.7127 67.0017V66.8181ZM92.4043 67.736L91.347 67.1853C91.347 67.1853 91.1356 67.1853 90.9241 67.1853L89.021 68.1031H88.8096L87.3294 67.3688C87.118 67.3688 86.9065 67.3688 86.6951 67.3688L83.5233 69.0209C83.3119 69.0209 83.3119 69.2045 83.5233 69.3881L86.2722 70.8566C86.4836 70.8566 86.6951 70.8566 86.9065 70.8566L92.1928 68.1031C92.6157 67.9195 92.6157 67.736 92.4043 67.736Z" fill="#263144"/>
<path d="M62.1668 79.3006L60.8981 79.8512C60.6866 79.8512 60.4752 79.8512 60.4752 79.8512L59.2065 79.3006C58.995 79.3006 58.995 79.117 59.2065 79.117L60.4752 78.5663C60.6866 78.5663 60.8981 78.5663 60.8981 78.5663L61.9553 79.117C62.1668 79.117 62.1668 79.117 62.1668 79.3006ZM64.2813 78.0156L63.224 77.4649C63.0126 77.4649 62.8011 77.4649 62.8011 77.4649L61.321 78.0156C61.1095 78.0156 61.1095 78.1992 61.321 78.1992L62.3782 78.7499C62.5897 78.7499 62.8011 78.7499 62.8011 78.7499L64.0698 78.1992C64.2813 78.1992 64.2813 78.0156 64.2813 78.0156ZM66.1843 76.9142L65.1271 76.3635C64.9156 76.3635 64.7042 76.3635 64.7042 76.3635L63.4355 77.0978C63.224 77.0978 63.224 77.2813 63.4355 77.2813L64.4927 77.832C64.7042 77.832 64.9156 77.832 64.9156 77.832L66.1843 77.2813C66.3958 77.0978 66.3958 77.0978 66.1843 76.9142ZM68.2988 75.9964L67.2416 75.4457C67.0301 75.4457 66.8187 75.4457 66.8187 75.4457L65.55 75.9964C65.3385 75.9964 65.3385 76.1799 65.55 76.1799L66.6072 76.7306C66.8187 76.7306 67.0301 76.7306 67.0301 76.7306L68.2988 76.1799C68.5103 76.1799 68.5103 75.9964 68.2988 75.9964ZM70.4134 74.895L69.3561 74.3443C69.1447 74.3443 68.9332 74.3443 68.9332 74.3443L67.6645 75.0786C67.453 75.0786 67.453 75.2621 67.6645 75.2621L68.7218 75.8128C68.9332 75.8128 69.1447 75.8128 69.1447 75.8128L70.4134 75.2621C70.4134 75.0785 70.4134 74.895 70.4134 74.895ZM72.5279 73.7936L71.4706 73.2429C71.2592 73.2429 71.0477 73.2429 71.0477 73.2429L69.779 73.7936C69.5676 73.7936 69.5676 73.9772 69.779 73.9772L70.8363 74.5278C71.0477 74.5278 71.2592 74.5278 71.2592 74.5278L72.5279 73.9772C72.5279 73.9772 72.5279 73.9772 72.5279 73.7936ZM74.4309 72.8758L73.3737 72.3251C73.1622 72.3251 72.9508 72.3251 72.9508 72.3251L71.6821 72.8758C71.4706 72.8758 71.4706 73.0593 71.6821 73.0593L72.7393 73.61C72.9508 73.61 73.1622 73.61 73.1622 73.61L74.4309 73.0593C74.6424 73.0593 74.6424 72.8758 74.4309 72.8758ZM76.5454 71.7744L75.4882 71.2237C75.2767 71.2237 75.0653 71.2237 75.0653 71.2237L73.7966 71.7744C73.5851 71.7744 73.5851 71.9579 73.7966 71.9579L74.8538 72.5086C75.0653 72.5086 75.2767 72.5086 75.2767 72.5086L76.5454 71.9579C76.7569 71.9579 76.7569 71.7744 76.5454 71.7744ZM78.66 70.673L77.6027 70.1223C77.3912 70.1223 77.1798 70.1223 77.1798 70.1223L75.9111 70.673C75.6996 70.673 75.6996 70.8565 75.9111 70.8565L76.9683 71.4072C77.1798 71.4072 77.3912 71.4072 77.3912 71.4072L78.66 70.8565C78.8714 70.8565 78.8714 70.8565 78.66 70.673ZM81.4088 69.388L80.3516 68.8373C80.1401 68.8373 79.9287 68.8373 79.9287 68.8373L77.8141 69.7552C77.6027 69.7552 77.6027 69.9387 77.8141 69.9387L78.8714 70.4894C79.0829 70.4894 79.2943 70.4894 79.2943 70.4894L81.1974 69.5716C81.4088 69.5716 81.4088 69.388 81.4088 69.388ZM90.2898 70.673L89.2325 70.1223C89.0211 70.1223 88.8096 70.1223 88.8096 70.1223L87.5409 70.673C87.3294 70.673 87.3294 70.8565 87.5409 70.8565L88.5982 71.4072C88.8096 71.4072 89.021 71.4072 89.021 71.4072L90.2898 70.8565V70.673ZM92.4043 69.5716L91.347 69.0209C91.1356 69.0209 90.9241 69.0209 90.9241 69.0209L89.444 69.7552C89.2325 69.7552 89.2325 69.9387 89.444 69.9387L90.5012 70.4894C90.7127 70.4894 90.9241 70.4894 90.9241 70.4894L92.1928 69.9387C92.4043 69.7551 92.4043 69.5716 92.4043 69.5716ZM94.3073 68.4702L93.2501 67.9195C93.0386 67.9195 92.8272 67.9195 92.8272 67.9195L91.5585 68.4702C91.347 68.4702 91.347 68.6538 91.5585 68.6538L92.6157 69.2045C92.8272 69.2045 93.0386 69.2045 93.0386 69.2045L94.3073 68.6538C94.5188 68.6538 94.5188 68.6538 94.3073 68.4702ZM92.1928 71.5908L91.1356 71.0401C90.9241 71.0401 90.7127 71.0401 90.7127 71.0401L89.2325 71.5908C89.0211 71.5908 89.0211 71.7744 89.2325 71.7744L90.2898 72.3251C90.5012 72.3251 90.7127 72.3251 90.7127 72.3251L91.9814 71.7744C92.1928 71.7744 92.1928 71.5908 92.1928 71.5908ZM94.3073 70.4894L93.0386 69.9387C92.8272 69.9387 92.6157 69.9387 92.6157 69.9387L91.347 70.4894C91.1356 70.4894 91.1356 70.673 91.347 70.673L92.4043 71.2237C92.6157 71.2237 92.8272 71.2237 92.8272 71.2237L94.0959 70.673C94.3073 70.673 94.3073 70.673 94.3073 70.4894ZM96.2104 69.5716L95.1531 69.0209C94.9417 69.0209 94.7302 69.0209 94.7302 69.0209L93.4615 69.5716C93.2501 69.5716 93.2501 69.7552 93.4615 69.7552L94.5188 70.3058C94.7302 70.3058 94.9417 70.3058 94.9417 70.3058L96.2104 69.7552C96.4218 69.5716 96.4218 69.5716 96.2104 69.5716ZM64.7042 79.6677L63.6469 79.117C63.4355 79.117 63.224 79.117 63.224 79.117L61.321 80.0348C61.1095 80.0348 61.1095 80.2184 61.321 80.2184L62.3782 80.7691C62.5897 80.7691 62.8011 80.7691 62.8011 80.7691L64.7042 79.8512C64.9156 79.8512 64.9156 79.6677 64.7042 79.6677ZM66.8187 78.5663L65.7614 78.0156C65.55 78.0156 65.3385 78.0156 65.3385 78.0156L64.0698 78.5663C63.8584 78.5663 63.8584 78.7499 64.0698 78.7499L65.1271 79.3006C65.3385 79.3006 65.55 79.3006 65.55 79.3006L66.8187 78.7499C66.8187 78.7499 66.8187 78.7499 66.8187 78.5663ZM68.9332 77.6485L67.6645 77.0978C67.453 77.0978 67.2416 77.0978 67.2416 77.0978L65.9729 77.6485C65.7614 77.6485 65.7614 77.832 65.9729 77.832L67.0301 78.3827C67.2416 78.3827 67.453 78.3827 67.453 78.3827L68.7218 77.832C68.9332 77.6485 68.9332 77.6485 68.9332 77.6485ZM70.8363 76.5471L69.779 75.9964C69.5676 75.9964 69.3561 75.9964 69.3561 75.9964L68.0874 76.5471C67.8759 76.5471 67.8759 76.7306 68.0874 76.7306L69.1447 77.2813C69.3561 77.2813 69.5676 77.2813 69.5676 77.2813L70.8363 76.7306C71.0477 76.7306 71.0477 76.5471 70.8363 76.5471ZM72.9508 75.4457L71.8935 74.895C71.6821 74.895 71.4706 74.895 71.4706 74.895L70.2019 75.4457C69.9905 75.4457 69.9905 75.6292 70.2019 75.6292L71.2592 76.1799C71.4706 76.1799 71.6821 76.1799 71.6821 76.1799L72.9508 75.6292C73.1622 75.6292 73.1622 75.6292 72.9508 75.4457ZM75.0653 74.5278L74.008 73.9772C73.7966 73.9772 73.5851 73.9772 73.5851 73.9772L72.3164 74.5278C72.105 74.5278 72.105 74.7114 72.3164 74.7114L73.3737 75.2621C73.5851 75.2621 73.7966 75.2621 73.7966 75.2621L75.0653 74.7114V74.5278ZM77.1798 73.4265L76.1225 72.8758C75.9111 72.8758 75.6996 72.8758 75.6996 72.8758L74.4309 73.4265C74.2195 73.4265 74.2195 73.61 74.4309 73.61L75.4882 74.1607C75.6996 74.1607 75.9111 74.1607 75.9111 74.1607L77.1798 73.61V73.4265ZM79.0829 72.3251L78.0256 71.7744C77.8141 71.7744 77.6027 71.7744 77.6027 71.7744L76.334 72.3251C76.1225 72.3251 76.1225 72.5086 76.334 72.5086L77.3912 73.0593C77.6027 73.0593 77.8141 73.0593 77.8141 73.0593L79.0829 72.5086C79.2943 72.5086 79.2943 72.5086 79.0829 72.3251ZM81.1974 71.4072L80.1401 70.8565C79.9287 70.8565 79.7172 70.8565 79.7172 70.8565L78.4485 71.4072C78.237 71.5908 78.237 71.5908 78.4485 71.5908L79.5058 72.1415C79.7172 72.1415 79.9287 72.1415 79.9287 72.1415L81.1974 71.5908C81.4088 71.5908 81.4088 71.4072 81.1974 71.4072ZM83.3119 70.3058L82.2546 69.7552C82.0432 69.7552 81.8317 69.7552 81.8317 69.7552L80.563 70.3058C80.3516 70.3058 80.3516 70.4894 80.563 70.4894L81.6203 71.0401C81.8317 71.0401 82.0432 71.0401 82.0432 71.0401L83.3119 70.4894C83.5233 70.4894 83.5233 70.3058 83.3119 70.3058ZM65.9729 80.9526L64.9156 80.4019C64.7042 80.4019 64.4927 80.4019 64.4927 80.4019L63.224 80.9526C63.0126 80.9526 63.0126 81.1362 63.224 81.1362L64.2813 81.6869C64.4927 81.6869 64.7042 81.6869 64.7042 81.6869L65.9729 81.1362V80.9526ZM67.8759 79.8512L66.8187 79.3006C66.6072 79.3006 66.3958 79.3006 66.3958 79.3006L65.1271 79.8512C64.9156 79.8512 64.9156 80.0348 65.1271 80.0348L66.1843 80.5855C66.3958 80.5855 66.6072 80.5855 66.6072 80.5855L67.8759 80.0348C68.0874 80.0348 68.0874 79.8512 67.8759 79.8512ZM69.9905 78.9334L68.9332 78.3827C68.7217 78.3827 68.5103 78.3827 68.5103 78.3827L67.2416 78.9334C67.0301 78.9334 67.0301 79.117 67.2416 79.117L68.2988 79.6677C68.5103 79.6677 68.7218 79.6677 68.7218 79.6677L69.9905 79.117C70.2019 78.9334 70.2019 78.9334 69.9905 78.9334ZM72.105 77.832L71.0477 77.2813C70.8363 77.2813 70.6248 77.2813 70.6248 77.2813L69.3561 77.832C69.1447 77.832 69.1447 78.0156 69.3561 78.0156L70.4134 78.5663C70.6248 78.5663 70.8363 78.5663 70.8363 78.5663L72.105 78.0156V77.832ZM69.5676 82.7883L68.5103 82.2376C68.2989 82.2376 68.0874 82.2376 68.0874 82.2376L66.8187 82.7883C66.6072 82.7883 66.6072 82.9719 66.8187 82.9719L67.8759 83.5226C68.0874 83.5226 68.2988 83.5226 68.2988 83.5226L69.5676 82.9719C69.779 82.9719 69.779 82.7883 69.5676 82.7883ZM71.6821 81.6869L70.6248 81.1362C70.4134 81.1362 70.2019 81.1362 70.2019 81.1362L68.9332 81.6869C68.7217 81.6869 68.7217 81.8705 68.9332 81.8705L69.9905 82.4212C70.2019 82.4212 70.4134 82.4212 70.4134 82.4212L71.6821 81.8705C71.8935 81.8705 71.8935 81.8705 71.6821 81.6869ZM73.7966 80.7691L72.7393 80.2184C72.5279 80.2184 72.3164 80.2184 72.3164 80.2184L71.0477 80.7691C70.8363 80.7691 70.8363 80.9526 71.0477 80.9526L72.105 81.5033C72.3164 81.5033 72.5279 81.5033 72.5279 81.5033L73.7966 80.9526V80.7691ZM75.9111 79.6677L74.8538 79.117C74.6424 79.117 74.4309 79.117 74.4309 79.117L73.1622 79.6677C72.9508 79.6677 72.9508 79.8512 73.1622 79.8512L74.2195 80.4019C74.4309 80.4019 74.6424 80.4019 74.6424 80.4019L75.9111 79.8512V79.6677ZM88.8096 73.0593L87.7523 72.5086C87.5409 72.5086 87.3294 72.5086 87.3294 72.5086L85.4264 73.4265C85.2149 73.4265 85.2149 73.61 85.4264 73.61L86.4836 74.1607C86.6951 74.1607 86.9065 74.1607 86.9065 74.1607L88.8096 73.4265C89.0211 73.2429 89.0211 73.2429 88.8096 73.0593ZM74.2195 76.7306L73.1622 76.1799C72.9508 76.1799 72.7393 76.1799 72.7393 76.1799L71.4706 76.7306C71.2592 76.7306 71.2592 76.9142 71.4706 76.9142L72.5279 77.4649C72.7393 77.4649 72.9508 77.4649 72.9508 77.4649L74.2195 76.9142C74.2195 76.9142 74.2195 76.9142 74.2195 76.7306ZM76.1225 75.8128L75.0653 75.2621C74.8538 75.2621 74.6424 75.2621 74.6424 75.2621L73.3737 75.8128C73.1622 75.8128 73.1622 75.9964 73.3737 75.9964L74.4309 76.5471C74.6424 76.5471 74.8538 76.5471 74.8538 76.5471L76.1225 75.9964C76.334 75.8128 76.334 75.8128 76.1225 75.8128ZM78.237 74.7114L77.1798 74.1607C76.9683 74.1607 76.7569 74.1607 76.7569 74.1607L75.4882 74.7114C75.2767 74.7114 75.2767 74.895 75.4882 74.895L76.5454 75.4457C76.7569 75.4457 76.9683 75.4457 76.9683 75.4457L78.237 74.895C78.4485 74.895 78.4485 74.7114 78.237 74.7114ZM80.3516 73.61L79.2943 73.0593C79.0829 73.0593 78.8714 73.0593 78.8714 73.0593L77.6027 73.61C77.3912 73.61 77.3912 73.7936 77.6027 73.7936L78.66 74.3443C78.8714 74.3443 79.0829 74.3443 79.0829 74.3443L80.3516 73.7936C80.3516 73.7936 80.3516 73.7936 80.3516 73.61ZM82.4661 72.6922L81.4088 72.1415C81.1974 72.1415 80.9859 72.1415 80.9859 72.1415L79.7172 72.6922C79.5058 72.6922 79.5058 72.8758 79.7172 72.8758L80.7745 73.4265C80.9859 73.4265 81.1974 73.4265 81.1974 73.4265L82.4661 72.8758V72.6922ZM85.2149 71.2237L84.1577 70.673C83.9462 70.673 83.7348 70.673 83.7348 70.673L81.8317 71.5908C81.6203 71.5908 81.6203 71.7744 81.8317 71.7744L82.889 72.3251C83.1004 72.3251 83.3119 72.3251 83.3119 72.3251L85.2149 71.4072C85.2149 71.4072 85.2149 71.4072 85.2149 71.2237ZM68.5103 81.5033L67.453 80.9526C67.2416 80.9526 67.0301 80.9526 67.0301 80.9526L65.1271 81.8705C64.9156 81.8705 64.9156 82.054 65.1271 82.054L66.1843 82.6047C66.3958 82.6047 66.6072 82.6047 66.6072 82.6047L68.5103 81.6869V81.5033ZM70.6248 80.4019L69.5676 79.8512C69.3561 79.8512 69.1447 79.8512 69.1447 79.8512L67.6645 80.5855V80.7691L68.7218 81.3198C68.9332 81.3198 69.1447 81.3198 69.1447 81.3198L70.4134 80.7691C70.6248 80.5855 70.6248 80.5855 70.6248 80.4019ZM72.5279 79.4841L71.4706 78.9334C71.2592 78.9334 71.0477 78.9334 71.0477 78.9334L69.779 79.4841C69.5676 79.4841 69.5676 79.6677 69.779 79.6677L70.8363 80.2184C71.0477 80.2184 71.2592 80.2184 71.2592 80.2184L72.5279 79.6677C72.7393 79.6677 72.7393 79.4841 72.5279 79.4841ZM74.6424 78.3827L73.5851 77.832C73.3737 77.832 73.1622 77.832 73.1622 77.832L71.8935 78.5663C71.6821 78.5663 71.6821 78.7499 71.8935 78.7499L72.9508 79.3006C73.1622 79.3006 73.3737 79.3006 73.3737 79.3006L74.6424 78.7499C74.8538 78.5663 74.8538 78.3827 74.6424 78.3827ZM76.7569 77.4649L75.6996 76.9142C75.4882 76.9142 75.2767 76.9142 75.2767 76.9142L74.008 77.4649C73.7966 77.4649 73.7966 77.6485 74.008 77.6485L75.0653 78.1992C75.2767 78.1992 75.4882 78.1992 75.4882 78.1992L76.7569 77.6485C76.7569 77.4649 76.7569 77.4649 76.7569 77.4649ZM86.2722 74.5278L85.2149 73.9772C85.0035 73.9772 84.792 73.9772 84.792 73.9772L75.2767 78.7499C75.0653 78.7499 75.0653 78.9334 75.2767 78.9334L76.334 79.4841C76.5454 79.4841 76.7569 79.4841 76.7569 79.4841L86.2722 74.7114V74.5278ZM78.8714 76.3635L77.8141 75.8128C77.6027 75.8128 77.3912 75.8128 77.3912 75.8128L76.1225 76.3635C75.9111 76.3635 75.9111 76.5471 76.1225 76.5471L77.1798 77.0978C77.3912 77.0978 77.6027 77.0978 77.6027 77.0978L78.8714 76.5471V76.3635ZM80.7745 75.2621L79.7172 74.7114C79.5058 74.7114 79.2943 74.7114 79.2943 74.7114L78.0256 75.2621C77.8141 75.2621 77.8141 75.4457 78.0256 75.4457L79.0829 75.9964C79.2943 75.9964 79.5058 75.9964 79.5058 75.9964L80.7745 75.4457C80.9859 75.4457 80.9859 75.4457 80.7745 75.2621ZM82.889 74.3443L81.8317 73.7936C81.6203 73.7936 81.4088 73.7936 81.4088 73.7936L80.1401 74.3443C79.9287 74.3443 79.9287 74.5278 80.1401 74.5278L81.1974 75.0786C81.4088 75.0786 81.6203 75.0786 81.6203 75.0786L82.889 74.5278C83.1004 74.3443 83.1004 74.3443 82.889 74.3443ZM85.0035 73.2429L83.9462 72.6922C83.7348 72.6922 83.5233 72.6922 83.5233 72.6922L82.2546 73.2429C82.0432 73.2429 82.0432 73.4265 82.2546 73.4265L83.3119 73.9772C83.5233 73.9772 83.7348 73.9772 83.7348 73.9772L85.0035 73.4265C85.2149 73.4265 85.2149 73.2429 85.0035 73.2429ZM87.118 72.1415L86.0607 71.5908C85.8493 71.5908 85.6378 71.5908 85.6378 71.5908L84.3691 72.1415C84.1577 72.1415 84.1577 72.3251 84.3691 72.3251L85.4264 72.8758C85.6378 72.8758 85.8493 72.8758 85.8493 72.8758L87.118 72.3251C87.118 72.3251 87.118 72.3251 87.118 72.1415ZM84.5806 67.7359L83.5233 67.1852C83.3119 67.1852 83.1004 67.1852 83.1004 67.1852L81.8317 67.9195C81.6203 67.9195 81.6203 68.1031 81.8317 68.1031L82.889 68.6538C83.1004 68.6538 83.3119 68.6538 83.3119 68.6538L84.5806 67.9195C84.792 67.9195 84.792 67.9195 84.5806 67.7359ZM86.6951 66.8181L85.6378 66.2674C85.4264 66.2674 85.2149 66.2674 85.2149 66.2674L83.9462 66.8181C83.7348 66.8181 83.7348 67.0017 83.9462 67.0017L85.0035 67.5524C85.2149 67.5524 85.4264 67.5524 85.4264 67.5524L86.6951 67.0017C86.6951 66.8181 86.6951 66.8181 86.6951 66.8181ZM88.8096 65.7167L87.7523 65.166C87.5409 65.166 87.3294 65.166 87.3294 65.166L86.0607 65.7167C85.8493 65.7167 85.8493 65.9003 86.0607 65.9003L87.118 66.451C87.3294 66.451 87.5409 66.451 87.5409 66.451L88.8096 65.9003V65.7167ZM90.7127 66.6345L89.444 66.0838C89.2325 66.0838 89.021 66.0838 89.021 66.0838L87.7523 66.6345C87.5409 66.6345 87.5409 66.8181 87.7523 66.8181L88.8096 67.3688C89.0211 67.3688 89.2325 67.3688 89.2325 67.3688L90.5012 66.8181C90.7127 66.8181 90.7127 66.6345 90.7127 66.6345ZM92.4043 67.5524L91.347 67.0017C91.347 67.0017 91.1356 67.0017 90.9241 67.0017L89.2325 67.9195H89.021L87.5409 67.1852C87.3294 67.1852 87.118 67.1852 86.9065 67.1852L83.7348 68.8373C83.5233 68.8373 83.5233 69.0209 83.7348 69.2045L86.4836 70.673C86.6951 70.673 86.9065 70.673 87.118 70.673L92.4043 67.9195C92.6157 67.7359 92.6157 67.5524 92.4043 67.5524Z" fill="#364157"/>
<path d="M119.47 142.263L82.889 160.986L104.88 172L141.672 153.46L119.47 142.263Z" fill="#F9F9FB"/>
<path d="M142.095 153.828C142.095 153.645 141.883 153.645 141.883 153.645C141.883 153.645 141.883 153.645 141.672 153.461L104.88 172.001L105.091 175.489L141.883 156.949C142.518 156.582 142.518 154.562 142.095 153.828Z" fill="#DDDDDF"/>
<path d="M118.624 141.529C118.201 141.161 117.778 140.611 117.567 139.877C117.144 139.142 116.932 138.224 116.932 137.49V110.69C116.932 109.588 117.355 109.038 117.99 108.67L80.1398 125.558C79.5054 125.926 78.8711 128.128 78.8711 129.23L79.1784 157.052C79.1784 157.786 79.3898 158.704 79.8127 159.438C80.0242 159.989 80.4471 160.539 80.87 161.09C81.2929 161.457 81.5043 161.641 81.9272 161.824L119.893 142.263C119.258 142.079 118.835 141.896 118.624 141.529Z" fill="#DDDDE1"/>
<path d="M119.681 105.55C118.201 104.815 116.932 104.815 115.875 105.366L79.0825 124.744C80.1397 124.193 81.4084 124.193 82.8886 124.928L102.554 134.84L139.346 115.279L119.681 105.55Z" fill="white"/>
<path d="M126.025 58.9245C124.333 60.0259 126.448 69.3878 118.413 71.7741C117.567 71.9577 116.087 71.407 115.453 71.2234C113.972 70.8563 100.862 66.6343 100.862 66.6343C100.228 66.2671 98.5365 64.6151 97.0563 63.8808C95.999 63.3301 94.9418 62.963 93.8845 62.7794C93.6731 62.7794 93.0387 62.7794 92.6158 62.7794C89.6555 63.8808 87.1181 66.0836 86.6952 66.4507C86.4837 66.6343 86.2723 66.8178 86.4838 67.0014C86.4838 67.185 86.6952 67.185 86.9066 67.185C86.6952 67.7357 87.3296 67.9192 87.541 67.9192C87.9639 67.9192 88.8097 67.5521 88.8097 67.5521C89.0212 67.5521 89.2326 67.5521 89.4441 67.5521C91.3471 67.9192 93.4616 68.2864 93.8845 68.6535C94.5189 69.0206 93.0387 69.7549 93.0387 69.7549C93.0387 69.7549 91.1357 69.5713 90.9242 69.5713C90.2899 69.5713 89.4441 69.9385 89.6555 70.3056C89.6555 70.6727 90.0784 70.6727 90.2899 70.8563C90.9242 71.0398 92.8273 71.407 92.8273 71.407C93.4616 71.2234 97.6907 70.6727 97.6907 70.6727C97.6907 70.6727 129.408 78.9332 129.831 78.9332C130.888 79.1167 134.272 74.7112 134.695 70.8563C135.329 67.0014 131.734 55.4368 126.025 58.9245Z" fill="#FFCCAA"/>
<path d="M130.042 72.8755C131.945 72.692 134.271 72.1413 135.54 71.407C135.54 68.2864 135.54 61.1273 134.906 58.1903C133.214 51.5819 124.333 49.1956 122.642 58.5574C122.007 61.4945 121.584 71.0399 121.584 71.0399C123.91 72.692 127.082 73.0591 130.042 72.8755Z" fill="#FB6D3A"/>
<path d="M129.619 104.448C129.619 104.448 97.4789 98.9414 94.5186 98.0236C85.4262 95.6372 80.7743 104.265 81.1972 105.733C75.2766 104.815 67.4529 106.1 64.9155 117.298L68.0872 115.646C72.3162 118.032 91.7697 124.641 98.3247 127.394C106.148 130.515 128.562 122.621 129.408 114.912C129.408 114.912 129.619 105.55 129.619 104.448Z" fill="#1E2940"/>
<path d="M129.197 52.8666C121.584 52.683 105.726 61.4942 101.919 64.0641C101.919 64.0641 102.131 73.6095 101.074 83.7056C100.651 89.029 97.6905 106.651 97.0561 110.506C97.0561 111.057 97.0561 111.791 97.6905 112.158C105.091 118.216 125.179 115.462 129.831 105.733C129.831 95.8209 134.694 53.4173 129.197 52.8666Z" fill="#FB6D3A"/>
<path d="M123.91 54.7024C123.699 54.5188 123.699 54.3353 123.699 53.9681C123.699 53.4174 123.699 52.8667 123.699 52.316C123.699 51.5818 123.699 50.664 123.487 49.9297C123.276 48.8283 121.796 49.1954 120.738 49.0119C119.047 48.4612 117.355 48.4612 115.452 48.2776C115.241 48.2776 114.818 48.2776 114.606 48.094C114.184 47.9105 113.972 47.7269 113.549 47.7269C113.338 47.7269 112.915 47.7269 112.492 47.5433C112.28 47.5433 110.166 46.9926 110.166 46.8091C110.8 49.379 111.435 55.4367 111.435 58.5573C111.435 58.5573 108.263 60.5765 107.84 60.7601C111.012 63.1464 118.624 61.1272 122.853 58.1901C123.487 57.6394 124.333 57.0887 124.545 56.3545C124.756 55.6202 124.122 55.2531 123.91 54.7024Z" fill="#FFCCAA"/>
<path d="M108.263 69.9385C106.571 66.2671 101.919 65.3493 98.9591 69.2042C97.6904 70.8563 96.6332 75.9961 93.4614 83.8894L92.1927 83.3387C80.5629 77.8318 79.9285 78.0153 79.5056 76.7304C79.0827 75.8125 78.4484 73.9769 78.0255 73.6098C78.0255 73.6098 76.3339 72.1412 75.911 71.9577C75.6995 71.7741 75.2766 71.7741 74.8537 71.9577C74.6423 72.1412 74.6423 72.3248 74.6423 72.5084C74.4308 72.5084 74.0079 72.3248 73.7965 72.3248C70.4132 72.5084 68.5102 74.7112 68.2987 74.8947C67.8758 75.0783 67.8758 75.0783 67.8758 75.4454C67.8758 75.629 68.0873 75.629 68.2987 75.8125C67.8758 76.1797 68.2987 76.5468 68.7216 76.5468C69.1445 76.5468 69.9903 76.5468 69.9903 76.5468C70.2018 76.5468 70.4132 76.5468 70.6247 76.7304C72.3163 77.6482 72.9506 77.8318 73.1621 78.3825C78.6598 83.7059 94.9416 94.1691 98.3248 92.3334C103.611 89.3964 110.377 74.7112 108.263 69.9385Z" fill="#FFCCAA"/>
<path d="M100.862 84.4401C102.765 84.6237 105.091 84.6237 106.572 84.073C107.417 81.136 109.32 73.9769 109.32 70.6727C109.532 63.6972 101.497 59.6588 97.4791 68.6535C96.2104 71.407 93.2501 80.7688 93.2501 80.7688C94.9417 82.9716 97.9021 84.073 100.862 84.4401Z" fill="#FB6D3A"/>
<path d="M105.514 98.024L104.88 110.69L105.302 137.123C105.302 137.674 105.091 138.041 104.88 138.225L141.672 119.501C141.883 119.318 142.095 118.95 142.095 118.4V79.4839L105.514 98.024Z" fill="#DDDDDF"/>
<path d="M142.306 79.3001C142.306 79.1165 142.095 79.1165 142.095 78.9329C141.884 78.5658 141.461 78.3822 141.038 78.1987C140.403 78.0151 139.98 77.8315 139.769 77.8315L102.765 96.3717L105.514 98.0237L142.306 79.4836V79.3001Z" fill="white"/>
<path d="M104.88 172.001L82.8887 160.987C81.4085 160.252 79.9284 158.05 79.9284 156.214V129.413C79.9284 127.578 81.1971 126.66 82.8887 127.578L104.034 138.224C104.88 138.592 105.514 138.224 105.514 137.307V98.3908C105.514 97.8401 104.668 97.2894 104.034 96.9223C103.188 96.5551 102.554 96.3716 102.554 96.9223V134.186L82.8887 124.274C79.7169 122.621 76.9681 124.274 76.9681 128.128V154.929C76.9681 158.6 79.5055 163.006 82.8887 164.658L104.88 175.672C105.725 175.855 105.725 172.368 104.88 172.001Z" fill="#EBECF3"/>
<path d="M105.303 44.0555C105.514 46.0748 105.937 47.9104 106.148 49.9296C106.571 51.7653 106.994 53.6009 107.417 55.253C107.417 55.6202 107.629 55.9873 107.84 56.3544C108.052 56.7216 108.474 56.9051 108.897 57.2723C111.012 58.3736 112.703 58.0065 115.029 57.823C116.932 57.6394 118.624 57.0887 120.316 56.3544C121.373 55.9873 122.219 55.4366 122.853 54.5188C123.276 53.7845 123.487 53.0502 123.487 52.1324C123.487 48.2775 121.584 44.7898 119.47 41.4856C118.836 40.5678 118.413 39.65 117.567 38.9157C115.875 37.2636 113.126 36.7129 110.377 36.3458C108.897 36.1622 106.994 35.9787 105.937 37.0801C105.091 37.8143 104.88 38.9157 104.88 39.8335C104.88 40.9349 105.091 42.587 105.303 44.0555Z" fill="#FFCCAA"/>
<path d="M104.033 38.5489C104.245 40.201 104.879 41.853 105.091 42.5873C105.091 42.7709 105.302 43.138 105.514 43.3216C105.936 44.0558 106.571 44.7901 106.782 45.5243C106.994 46.4422 106.782 47.5436 107.628 48.2778C107.84 48.4614 108.051 48.645 108.262 48.4614C108.474 48.4614 108.685 48.0943 108.685 47.9107C108.897 47.36 109.108 46.2586 109.743 46.075C110.588 45.8915 111.646 46.9929 111.857 47.5436C112.28 48.4614 111.857 49.3792 112.069 50.2971C112.28 52.3163 112.914 53.9684 115.24 54.1519C116.72 54.3355 118.412 54.3355 119.892 53.9684C124.121 53.0505 126.87 50.1135 127.293 46.6257C127.927 42.9544 127.716 38.3653 125.179 35.0611C123.487 32.6748 119.892 31.9405 116.509 32.3076C113.549 32.6748 111.434 32.6748 107.205 34.694C105.725 35.4283 103.822 37.2639 104.033 38.5489Z" fill="#2E2C34"/>
<path d="M104.033 38.5487C104.245 40.2008 104.879 41.8529 105.091 42.5872C105.091 42.7707 105.302 43.1379 105.514 43.3214C109.531 40.7515 111.011 37.8145 107.417 34.6938C105.725 35.4281 103.822 37.2638 104.033 38.5487Z" fill="#2E2C34"/>
<path d="M64.0694 62.2285L48.8449 69.9383L55.1884 73.0589L70.4129 65.5327L64.0694 62.2285Z" fill="#1E2A3D"/>
<path d="M70.4125 65.5332L55.188 73.0594C55.188 73.243 55.188 73.6101 55.188 73.7937L70.4125 66.0839C70.624 66.2675 70.624 65.7168 70.4125 65.5332Z" fill="#1D293C"/>
<path d="M62.8004 60.9439C62.589 60.3932 62.3775 59.8425 62.589 59.4753L66.818 51.582L51.5935 59.2918L47.3645 67.1851C47.1531 67.5522 47.1531 68.1029 47.576 68.6536C47.7874 69.0207 47.8756 69.271 48.0871 69.4546C48.2985 69.6382 48.6735 69.9653 48.8447 69.9386L64.0691 62.2288C63.8577 62.0453 63.6462 61.8617 63.4348 61.6781C63.2233 61.4946 63.0119 61.311 62.8004 60.9439Z" fill="#172030"/>
<path d="M55.1883 73.0594L48.8448 69.9388C48.4219 69.7553 47.999 69.2046 47.5761 68.6539C47.3646 68.1032 47.1532 67.5525 47.3646 67.1853L51.5937 59.292V59.1085V51.3987C51.5937 51.2151 51.3822 50.848 51.1708 50.848C50.9593 50.6644 50.7479 50.848 50.7479 51.0316V58.7413L46.7303 66.6346C46.5188 67.1853 46.5188 67.9196 46.9417 68.8374C47.3646 69.7553 47.999 70.4895 48.8448 70.8566L55.1883 73.7839C55.3998 73.7839 55.3998 73.243 55.1883 73.0594Z" fill="#1D293C"/>
<path d="M66.8181 43.5053C66.8181 43.5053 66.8181 43.3217 66.6067 43.3217L66.3952 43.1382H66.1838L50.9593 50.8479H51.1707C51.1707 50.8479 51.3822 50.8479 51.3822 51.0315L51.5936 51.2151V51.3986V59.1084V59.2919L66.8181 51.5822V51.3986V43.6889V43.5053Z" fill="#B2B9BB"/>
<path d="M92.6154 0.734375L92.8269 41.853L23.4709 76.5469L22.8366 69.5714L22.4137 34.8775L92.6154 0.734375Z" fill="#1E2A3D"/>
<path d="M23.4709 76.5468L22.2022 75.9961L21.9908 34.6938L23.4709 35.4281V76.5468Z" fill="#1D293C"/>
<path d="M23.471 35.4281L21.9908 34.6939L91.3468 0L92.6155 0.734262L23.471 35.4281Z" fill="#34455F"/>
<path opacity="0.1" d="M23.8939 35.6119L92.1926 1.46875V35.0612L23.8939 69.2044V35.6119Z" fill="#A39DAB"/>
<path opacity="0.8" d="M30.0259 35.2444C30.8717 34.8773 31.2946 35.9787 30.6603 36.8965C30.2374 37.8144 29.3916 37.9979 29.3916 36.8965C28.9686 37.6308 28.1228 39.0993 28.1228 38.1815C28.1228 37.6308 28.3343 36.5294 28.3343 35.9787C28.3343 35.7951 28.3343 35.7951 28.5457 35.7951C28.5457 35.7951 28.5457 35.7951 28.5457 35.9787C28.3343 36.713 28.3343 37.4472 28.3343 37.9979C28.5457 37.6308 28.7572 37.4472 28.9686 37.0801C29.3916 36.5294 29.603 36.3458 29.603 36.8965C29.603 37.0801 29.8145 37.2637 30.0259 37.2637C30.8717 36.8965 30.8717 34.8773 30.0259 35.2444C30.0259 35.6116 29.8145 35.6116 30.0259 35.2444C29.8145 35.428 29.8145 35.428 30.0259 35.2444ZM34.4664 34.5102C34.4664 34.5102 32.3519 35.9787 32.3519 35.7951C32.1404 35.7951 34.4664 34.3266 34.4664 34.5102ZM34.4664 33.7759L34.0435 33.9595C31.0832 35.9787 32.5633 34.6937 34.4664 33.7759C34.6778 33.7759 34.4664 33.5923 34.4664 33.7759ZM36.158 35.428C35.9465 35.6116 35.7351 35.9787 35.7351 35.6116C35.7351 35.428 36.158 34.143 36.158 34.143C35.5236 35.2444 34.4664 35.428 35.1007 34.143C35.7351 32.6745 36.5809 32.491 36.5809 32.8581C36.5809 33.0416 36.5809 33.0416 36.3694 32.8581C35.7351 32.6745 34.6778 35.0609 35.3122 34.6937C35.7351 34.5102 36.158 33.9595 36.3694 33.2252C36.3694 33.2252 36.5809 33.0417 36.5809 33.2252C36.5809 33.4088 35.9465 35.2444 35.9465 35.428C36.5809 34.8773 36.7923 34.6937 36.158 35.428ZM37.4267 31.5731C37.6381 31.7567 37.4267 32.3074 37.2152 32.491C36.5809 35.0609 38.4839 33.0417 38.4839 31.5731C38.4839 31.3896 38.4839 30.8389 38.6954 31.0224C38.9068 31.206 38.4839 32.6745 38.4839 33.0416C37.8496 34.3266 37.0038 34.3266 37.0038 33.7759C37.0038 33.5923 37.4267 31.5731 37.4267 31.5731ZM40.1756 32.8581C40.1756 32.6745 41.6557 28.8196 41.6557 29.0032C41.8672 29.1868 40.387 32.491 40.1756 32.6745C40.387 32.8581 40.387 33.0416 40.1756 32.8581ZM42.9244 29.1868L42.713 29.3703C42.5015 29.3703 43.3473 28.2689 43.7702 28.4525C44.4046 28.6361 43.3473 30.1046 42.9244 30.4717C42.713 30.6553 42.5015 31.0224 42.2901 31.206C42.5015 31.206 43.7702 30.1046 43.7702 30.2882C43.7702 30.4717 42.5015 31.206 42.2901 31.206C42.0786 31.206 42.0786 31.206 42.0786 31.206C42.0786 31.0224 42.5015 30.6553 42.713 30.4717C43.9817 29.0032 43.7702 28.2689 43.3473 28.6361C43.1359 28.8196 42.9244 29.0032 42.9244 29.1868ZM46.5191 28.2689C46.7305 28.2689 46.7305 28.2689 46.7305 28.2689L45.6733 29.0032C43.7702 30.2882 44.616 29.3703 46.5191 28.2689ZM46.0962 28.0854C44.4046 29.1868 44.1931 29.0032 45.6733 28.2689C46.942 27.3511 47.5763 27.1676 46.0962 28.0854ZM47.5763 29.7375C47.5763 29.7375 47.3649 30.1046 47.1534 30.1046C46.942 30.2882 47.3649 28.8196 47.5763 28.4525C47.3649 28.8196 46.7305 29.3703 46.5191 29.3703C45.8847 29.1868 47.1534 27.3511 47.5763 27.1676C47.9992 26.984 48.2107 27.5347 47.7878 27.3511C47.5763 27.3511 47.3649 27.5347 47.1534 27.9018C45.6733 30.1046 47.3649 29.5539 47.7878 27.9018C47.7878 27.9018 47.9992 27.7183 47.9992 27.9018C47.9992 28.0854 47.3649 29.921 47.3649 30.1046C47.9992 29.1868 48.4221 29.0032 47.5763 29.7375ZM49.4794 26.4333C49.6909 26.4333 48.8451 26.984 48.8451 26.984C48.4221 27.1676 48.6336 26.8004 49.0565 26.4333C49.6909 25.699 49.4794 25.3319 49.0565 25.699C48.8451 25.8826 48.6336 25.8826 49.0565 25.5155C49.4794 24.9648 49.9023 25.3319 49.4794 26.0662C49.268 26.2497 49.0565 26.4333 48.8451 26.8004C49.4794 26.2497 49.4794 26.4333 49.4794 26.4333ZM49.9023 28.0854C49.6909 28.0854 51.3825 24.0469 51.3825 24.2305C51.8054 24.0469 51.171 25.3319 50.9596 25.699C50.5367 26.6169 50.5367 26.984 50.1138 27.9018C49.9023 27.9018 49.9023 28.0854 49.9023 28.0854ZM52.4397 24.4141C52.2283 24.5976 52.0168 24.5976 52.4397 24.2305C53.497 23.1291 54.5542 23.8634 52.0168 26.6169C52.2283 26.6169 53.497 25.5155 53.497 25.699C53.497 25.8826 52.2283 26.6169 52.0168 26.6169C51.8054 26.6169 51.8054 26.6169 51.8054 26.6169C51.8054 26.4333 52.2283 26.0662 52.4397 25.8826C53.9199 23.8634 53.2855 23.4962 52.4397 24.4141ZM56.6687 21.8442V22.762C56.2458 21.8442 55.1886 22.5784 54.7657 23.4962C54.1313 25.3319 55.6115 25.5155 56.6687 23.8634C56.4573 24.2305 56.2458 24.4141 56.2458 24.5976C54.1313 26.8004 53.0741 23.6798 55.6115 22.3949C56.0344 22.2113 56.4573 22.2113 56.4573 22.2113C56.4573 22.0277 56.4573 22.0277 56.6687 21.8442ZM59.4176 22.0277C59.4176 22.0277 57.3031 23.4962 57.3031 23.3127C57.0916 23.3127 59.4176 21.8442 59.4176 22.0277ZM59.4176 21.2935L58.9947 21.477C56.0344 23.4962 57.5145 22.0277 59.4176 21.2935C59.4176 21.2935 59.4176 21.1099 59.4176 21.2935ZM60.6863 20.1921C60.052 20.1921 59.2062 21.8442 59.2062 22.3949C59.2062 22.762 59.6291 22.762 60.2634 22.0277C60.8978 21.2935 60.6863 21.8442 60.052 22.3949C59.2062 23.1291 58.3603 22.9456 58.9947 21.6606C59.4176 21.1099 60.052 20.1921 60.6863 20.1921C61.1092 20.1921 60.8978 19.8249 60.6863 20.1921ZM61.955 19.4578C62.1665 19.6414 61.5321 21.2935 61.7436 21.6606C61.955 21.8442 63.2237 20.5592 63.0123 19.0907C63.0123 18.9071 63.0123 18.9071 63.0123 18.9071C63.0123 18.9071 63.2237 18.9071 63.2237 19.0907C63.2237 21.477 60.8978 23.4962 61.5321 20.7428C61.7436 19.8249 61.7436 19.4578 61.955 19.4578C61.7436 19.4578 61.7436 19.2742 61.955 19.4578ZM65.9726 18.1728C65.9726 17.9893 65.9726 17.9893 65.9726 18.1728C66.184 17.9893 66.184 17.9893 65.9726 18.1728C65.9726 18.3564 65.3382 18.7235 65.3382 18.7235H65.1268L65.5497 18.1728C65.7611 17.9893 65.9726 17.6222 65.9726 17.4386C65.9726 17.255 65.7611 17.255 65.5497 17.4386L65.3382 17.6222C65.1268 17.6222 65.3382 17.4386 65.3382 17.4386C65.5497 17.255 65.7611 17.0715 65.9726 17.255C66.184 17.4386 65.9726 17.8057 65.9726 17.9893C65.7611 18.1729 65.5497 18.3564 65.3382 18.7235C65.9726 17.9893 65.9726 18.1728 65.9726 18.1728ZM66.3955 19.8249C66.184 19.8249 67.6642 16.1536 67.8756 16.1536V15.9701C67.8756 15.9701 68.0871 15.9701 68.0871 16.1536C68.0871 16.3372 67.6642 17.255 67.6642 17.4386C67.2413 18.3564 67.2413 18.7235 66.8184 19.6414C66.6069 19.6414 66.6069 19.8249 66.3955 19.8249ZM69.1444 16.1536C68.9329 16.1536 68.9329 16.1536 69.1444 16.1536C68.9329 16.3372 68.7215 16.3372 69.1444 15.9701C69.3558 15.7865 69.7787 15.4194 69.9902 15.6029C70.2016 15.7865 70.2016 16.1536 69.9902 16.5208C69.7787 17.0715 68.9329 17.9893 68.51 18.54C68.51 18.54 68.9329 18.3564 69.1444 18.1728C69.9902 17.6222 69.9902 17.6222 69.9902 17.6222C69.9902 17.8057 68.7214 18.7235 68.2985 18.7235C68.2985 18.7235 68.2985 18.54 68.51 18.54C68.51 18.3564 68.7214 18.1728 68.9329 18.1728C70.6245 15.6029 69.7787 15.0522 69.1444 16.1536ZM28.7572 41.3021C28.7572 41.1185 28.7572 41.3021 28.7572 41.3021C29.1801 41.4857 28.3343 43.872 28.3343 43.872C28.1228 44.0556 28.3343 42.9542 28.5457 42.5871C28.7572 41.4857 28.7572 41.3021 28.7572 41.3021ZM30.0259 43.6884L30.2374 41.3021C30.2374 41.1185 30.4488 41.1185 30.4488 41.3021C30.4488 41.4857 30.2374 43.872 30.0259 43.6884ZM33.4091 40.3843C33.4091 40.3843 31.2946 41.8528 31.2946 41.6692C30.8717 41.6692 33.4091 40.2007 33.4091 40.3843ZM33.4091 39.65L32.9862 39.8336C30.0259 41.8528 31.2946 40.5678 33.4091 39.65C33.4091 39.65 33.4091 39.4664 33.4091 39.65ZM34.2549 38.5486C34.2549 38.5486 34.4664 38.365 34.2549 38.5486C34.4664 38.7322 33.832 41.3021 33.832 41.1185C33.6206 41.1185 34.2549 38.365 34.2549 38.5486ZM35.9465 38.5486L35.7351 38.7322C35.5236 38.7322 36.3694 37.6308 36.7923 37.8144C37.6381 38.1815 35.9465 40.0171 35.3122 40.5678C35.5236 40.3843 36.5809 39.8336 36.7923 39.65C37.4267 39.4664 35.1007 41.1185 35.3122 40.5678C35.3122 40.3843 36.158 39.4664 36.3694 39.2829C37.2152 38.1815 36.7923 37.8144 36.5809 37.8144C36.3694 38.365 36.158 38.5486 35.9465 38.5486ZM38.9068 37.6308C38.9068 37.6308 36.7923 39.0993 36.7923 38.9157C36.5809 38.9157 38.9068 37.4472 38.9068 37.6308ZM38.9068 36.8965L38.4839 37.0801C35.5236 39.0993 36.7923 37.8144 38.9068 36.8965C39.1183 36.713 38.9068 36.713 38.9068 36.8965ZM39.7527 35.7951C39.7527 35.6116 39.9641 35.6116 39.7527 35.7951C40.1756 35.9787 39.3298 38.365 39.3298 38.365C39.1183 38.5486 39.3298 37.4472 39.5412 37.0801C39.7527 35.9787 39.7527 35.7951 39.7527 35.7951ZM40.5985 38.1815C41.0214 37.8144 40.8099 37.6308 40.8099 37.6308C40.5985 37.6308 40.8099 37.2637 41.0214 37.2637C41.2328 37.2637 41.0214 37.8144 40.8099 37.9979C40.387 38.5486 40.1756 38.7322 40.5985 38.1815ZM43.5588 33.9595C43.7702 34.143 43.5588 34.6937 43.3473 34.8773C42.713 37.4472 44.616 35.428 44.616 33.9595C44.616 33.7759 44.616 33.2252 44.8275 33.4088C45.2504 33.5923 44.616 35.7951 43.5588 36.3458C43.1359 36.5294 42.9244 36.3458 42.9244 35.9787C42.9244 35.9787 43.3473 33.9595 43.5588 33.9595C43.3473 33.9595 43.3473 33.9595 43.5588 33.9595ZM46.5191 35.2444C46.5191 35.2444 46.7305 34.143 46.7305 33.0416C46.7305 32.8581 46.942 32.8581 46.942 33.0416C46.942 35.2444 46.5191 35.6116 46.5191 35.2444ZM48.8451 32.491C48.8451 32.6745 48.6336 33.7759 48.6336 33.4088C48.6336 33.4088 48.6336 32.6745 48.8451 32.491C48.6336 32.6745 47.9992 33.0416 47.7878 33.0416C47.3649 32.8581 48.4221 32.491 48.8451 32.491C48.6336 32.3074 48.8451 31.5731 48.8451 31.5731C48.8451 31.5731 49.0565 31.5731 49.0565 31.7567C49.0565 31.7567 49.0565 32.1238 48.8451 32.491C49.0565 32.3074 49.6909 31.9403 49.9023 31.9403C50.1138 31.5731 50.3252 31.7567 48.8451 32.491ZM50.9596 30.2882C51.171 30.4717 50.9596 31.0224 50.7481 31.206C50.1138 33.7759 52.2283 31.7567 52.0168 29.921C52.0168 29.7375 52.0168 29.7375 52.0168 29.7375C52.0168 29.7375 52.2283 29.7375 52.2283 29.921C52.2283 32.491 49.9023 34.143 50.5367 31.5731C50.7481 30.6553 50.7481 30.2882 50.9596 30.2882C50.7481 30.2882 50.7481 30.1046 50.9596 30.2882ZM54.5542 29.3703L54.3428 29.5539C54.1313 29.5539 54.9771 28.4525 55.4 28.6361C56.2458 29.0032 54.5542 30.8389 53.9199 31.3896C54.1313 31.206 55.1886 30.6553 55.4 30.4717C56.0344 30.1046 54.7657 31.206 54.1313 31.3896C53.9199 31.3896 53.9199 31.3896 53.9199 31.3896C53.9199 31.206 54.3428 30.8389 54.5542 30.6553C54.9771 30.2882 55.8229 29.0032 55.4 28.6361H55.1886C54.7657 29.0032 54.5542 29.1868 54.5542 29.3703ZM56.0344 29.0032C58.7832 27.3511 56.6687 29.0032 55.1886 29.7375C54.9771 29.5539 55.8229 29.1868 56.0344 29.0032ZM57.3031 27.5347C57.3031 27.5347 56.6687 27.9018 56.4573 28.0854C56.2458 28.0854 55.1886 28.8196 55.1886 28.8196H54.9771C55.1886 28.6361 57.0916 27.7183 57.3031 27.5347C57.5145 27.5347 57.5145 27.5347 57.3031 27.5347ZM58.3603 26.6169C58.5718 26.8004 58.3603 27.3511 58.1489 27.5347C57.5145 30.1046 59.4176 28.0854 59.4176 26.2497C59.4176 26.0662 59.4176 26.0662 59.4176 26.0662C59.8405 25.8826 59.6291 28.4525 58.3603 29.0032C57.9374 29.1868 57.726 29.0032 57.726 28.6361C57.726 28.4525 58.1489 26.6169 58.3603 26.6169C58.1489 26.6169 58.1489 26.4333 58.3603 26.6169ZM60.6863 28.2689C60.6863 28.2689 61.1092 27.7183 61.1092 27.5347C61.1092 27.3511 61.1092 27.3511 60.8978 27.3511C60.6863 27.3511 60.6863 27.3511 60.8978 27.1676C61.1092 26.8004 61.7436 26.984 61.1092 27.7183C61.1092 27.9018 60.6863 28.4525 60.6863 28.2689ZM62.8008 26.4333L63.2237 24.2305C62.8008 24.2305 63.8581 23.4962 64.4924 23.4962C65.1268 23.4962 64.4924 24.4141 64.0695 24.7812C63.4352 25.3319 63.0123 25.3319 64.281 25.699C64.281 25.699 64.4924 25.699 64.4924 25.8826C64.4924 26.2497 63.2237 25.8826 63.0123 25.699C63.0123 25.8826 62.8008 26.2497 62.8008 26.6169C63.0123 26.4333 63.0123 26.6169 62.8008 26.4333ZM63.4352 25.1483C63.6466 24.7812 64.7039 24.2305 64.7039 23.6798C64.7039 23.3127 64.0695 23.6798 63.6466 24.0469C63.6466 24.2305 63.4352 25.1483 63.4352 25.1483ZM66.184 25.3319C66.184 25.3319 66.3955 24.2305 66.3955 23.1291C66.3955 22.9456 66.6069 22.9456 66.6069 23.1291C66.6069 25.5155 66.184 25.8826 66.184 25.3319ZM68.51 22.5784C68.51 22.5784 68.2985 23.4962 68.2985 23.6798C68.0871 23.6798 68.2985 22.9456 68.51 22.5784C68.2985 22.762 67.4527 23.1291 67.4527 23.1291C67.4527 23.1291 67.2413 22.9456 67.4527 22.9456C67.8756 22.762 67.8756 22.762 68.51 22.5784C68.2985 22.3949 68.51 21.6606 68.51 21.6606C68.7215 21.477 68.51 22.2113 68.51 22.3949C68.7215 22.2113 69.3558 21.8442 69.5673 21.8442C69.7787 21.6606 69.7787 21.8442 68.51 22.5784ZM69.9902 22.9456C69.7787 22.9456 70.2016 22.0277 70.2016 21.8442C70.4131 21.2935 70.4131 20.9263 70.4131 20.7428C69.9902 20.7428 71.0474 20.0085 71.6818 20.0085C71.8932 20.0085 71.8932 20.0085 71.8932 20.1921C71.8932 20.5592 71.4703 20.9263 71.2589 21.1099C70.6245 21.6606 70.2016 21.6606 71.4703 22.0277C71.4703 22.0277 71.6818 22.0277 71.6818 22.2113C71.6818 22.3949 71.0474 22.3949 70.836 22.2113C70.4131 22.2113 70.2016 22.0277 70.2016 21.8442C70.2016 22.0277 69.9902 22.2113 69.9902 22.5784V22.762C69.9902 22.762 69.9902 23.1291 69.9902 22.9456ZM70.4131 21.6606C70.836 21.2935 71.0474 21.1099 71.4703 20.5592C71.8932 20.0085 71.4703 19.8249 70.6245 20.5592C70.6245 20.7428 70.4131 21.477 70.4131 21.6606ZM73.7963 19.8249L73.5848 20.0085C73.3734 20.0085 74.2192 18.9071 74.6421 19.0907C75.2764 19.2742 74.2192 20.7428 73.7963 21.1099C73.5848 21.2935 73.3734 21.6606 73.1619 21.8442C73.1619 21.8442 73.5848 21.6606 73.7963 21.477C75.065 20.7428 74.8535 20.9263 74.0077 21.477C73.7963 21.6606 72.9505 22.2113 72.9505 22.0277C72.9505 21.8442 73.7963 20.9263 74.0077 20.7428C74.8535 19.6414 74.4306 19.2742 74.2192 19.2742C74.0077 19.4578 73.7963 19.6414 73.7963 19.8249ZM75.2764 19.4578C77.1795 18.3564 77.1795 18.54 75.065 19.8249C74.2192 20.1921 74.0077 20.1921 75.2764 19.4578ZM76.5451 17.9893L76.1222 18.1728C73.1619 20.1921 74.4306 18.9071 76.5451 17.9893C76.7566 17.9893 76.7566 17.8057 76.5451 17.9893ZM76.968 19.4578L77.3909 17.255C76.968 17.255 78.0253 16.5208 78.6596 16.5208C79.0826 16.5208 78.8711 17.0715 78.6596 17.255C78.0253 18.1728 76.968 17.9893 78.2367 18.3564C79.5055 18.7235 77.6024 18.7235 77.3909 18.1728C77.3909 18.3564 77.1795 18.7235 77.1795 19.0907C77.1795 19.2742 76.968 19.4578 76.968 19.4578ZM77.3909 18.1728C77.6024 17.8057 78.6596 17.255 78.6596 16.7043C78.6596 16.3372 78.0253 16.7043 77.6024 17.0715C77.6024 17.255 77.3909 17.9893 77.3909 18.1728ZM30.2374 47.9104L30.6603 48.4611C30.6603 48.6447 30.4488 48.6447 30.2374 48.094C28.5457 50.1132 28.9686 46.4419 30.4488 45.7077C30.8717 45.3405 31.5061 46.2584 30.2374 47.9104ZM30.0259 47.9104C29.8145 47.5433 29.603 46.8091 29.8145 46.4419C28.7572 47.7269 28.9686 49.1954 30.0259 47.9104ZM30.2374 47.7269C30.4488 47.3598 31.0832 46.2584 30.6603 45.8912C30.2374 45.5241 29.603 46.4419 30.2374 47.7269ZM33.832 45.3405C33.832 45.3405 31.7175 46.8091 31.7175 46.6255C31.5061 46.6255 33.832 45.157 33.832 45.3405ZM33.832 44.6063L33.4091 44.7898C30.4488 46.8091 31.7175 45.5241 33.832 44.6063C34.0435 44.6063 34.0435 44.4227 33.832 44.6063ZM34.8893 43.5049C34.8893 43.3213 34.8893 43.3213 34.8893 43.5049C35.3122 43.6884 34.4664 46.0748 34.4664 46.0748C34.2549 46.2584 34.4664 45.157 34.6778 44.7898C34.8893 43.6884 34.8893 43.5049 34.8893 43.5049ZM36.158 43.1377C35.9465 43.1377 35.9465 43.1377 36.3694 42.7706C36.5809 42.5871 37.0038 42.2199 37.2152 42.4035C38.061 42.7706 36.3694 44.6063 35.7351 45.157C35.9465 45.157 37.2152 44.0556 37.2152 44.2391C37.2152 44.4227 35.9465 45.157 35.7351 45.157C35.5236 45.157 35.5236 45.157 35.5236 45.157C35.5236 44.9734 35.9465 44.6063 36.158 44.4227C37.4267 42.9542 37.2152 42.2199 36.7923 42.5871C36.5809 42.7706 36.3694 43.1377 36.158 43.1377ZM38.061 44.2391L38.4839 42.0364C38.2725 42.0364 38.4839 41.8528 38.6954 41.6692C39.9641 40.7514 40.8099 41.3021 38.9068 42.7706C38.6954 42.9542 38.4839 42.9542 39.3298 43.1377C40.5985 43.5049 38.6954 43.5049 38.4839 42.9542C38.4839 43.1377 38.2725 44.2391 38.061 44.2391ZM38.6954 42.7706L38.9068 42.5871C40.387 41.3021 39.9641 40.935 38.9068 41.8528L38.6954 42.7706ZM41.0214 41.1185C41.0214 41.4857 40.387 42.7706 40.8099 42.5871C41.2328 42.4035 41.4443 42.0364 41.4443 42.0364C41.8672 41.8528 40.8099 42.9542 40.5985 42.7706C40.387 42.7706 40.8099 41.4857 40.8099 41.1185C40.387 41.6692 40.1756 41.4857 41.0214 41.1185C40.8099 40.7514 40.8099 40.7514 41.0214 40.5678V40.3843C41.2328 40.2007 41.2328 40.7514 41.0214 40.935C41.8672 40.3843 42.2901 40.3843 41.0214 41.1185ZM78.8711 12.8495H79.5054C79.5054 13.033 78.8711 13.2166 78.4482 13.033C77.3909 12.6659 78.4482 10.6467 79.0826 9.72884C79.294 9.54528 79.9284 8.62745 79.9284 8.99458C79.9284 8.99458 79.0825 10.096 78.8711 10.2795C78.4482 11.1974 77.8138 12.6659 78.8711 12.8495ZM80.1398 12.1152L80.5627 9.91241C80.3513 9.72884 80.9856 9.17814 81.1971 9.17814C81.62 8.99458 82.0429 8.99458 82.0429 9.36171C82.0429 9.72884 81.62 10.096 81.4085 10.2795C80.7742 10.8302 80.3513 10.8302 81.62 11.0138C82.0429 11.1974 81.8314 11.3809 81.1971 11.1974C80.7742 11.1974 80.5627 11.0138 80.5627 10.8302C80.5627 11.0138 80.3513 12.1152 80.1398 12.1152ZM80.5627 10.8302C80.7742 10.4631 81.8314 9.91241 81.8314 9.36171C81.8314 8.99458 81.1971 9.36171 80.7742 9.72884C80.7742 9.72884 80.5627 10.6467 80.5627 10.8302ZM84.3688 8.99458C84.5803 8.99458 84.5803 8.99458 84.5803 8.99458C84.5803 8.99458 83.9459 9.54527 83.7345 9.54527C81.1971 11.0138 82.4658 9.91241 84.3688 8.99458ZM84.5803 8.07675L84.1574 8.26032C81.1971 10.4631 82.6772 8.99458 84.5803 8.07675C84.7917 8.07675 84.7917 7.89319 84.5803 8.07675ZM85.849 7.15892C86.2719 6.42466 86.6948 6.42466 86.6948 7.34249C86.6948 7.70962 86.6948 8.07675 86.4833 8.44388C85.6375 10.096 84.5803 8.81101 85.849 7.15892ZM86.4833 7.34249C86.4833 6.60823 86.2719 6.60823 85.849 7.15892C85.6375 7.34249 85.6375 7.52606 85.6375 7.89319C85.0032 9.72884 86.4833 8.99458 86.4833 7.34249ZM87.1177 8.99458C86.9062 9.17814 86.6948 9.17814 86.6948 9.17814L87.3291 8.44388C87.9635 7.70962 88.1749 7.34249 88.1749 6.97536C88.3864 6.60823 88.3864 6.42466 88.3864 6.2411C88.3864 6.05753 88.3864 5.87397 88.3864 5.87397C88.3864 5.6904 88.1749 5.6904 88.1749 5.6904H87.9635H87.752C87.752 5.6904 87.752 5.6904 87.9635 5.50684C88.1749 5.50684 88.3864 5.50684 88.5979 5.50684C88.8093 5.6904 88.8093 5.87397 88.8093 6.2411C88.8093 6.79179 88.5978 7.34249 88.3864 7.70962C88.1749 7.89319 88.1749 8.07675 87.9635 8.44388C87.5406 8.26032 87.3291 8.62745 87.1177 8.99458ZM79.294 22.2113C79.0826 22.3949 78.6596 22.5784 78.2367 22.762C78.2367 22.9456 77.8138 24.2305 77.8138 24.0469C77.8138 24.0469 77.8138 23.4962 78.0253 23.3127C78.2367 22.3949 78.4482 21.477 78.4482 21.477C78.6596 21.2935 79.9284 20.5592 79.9284 20.7428C79.9284 20.7428 79.7169 20.9263 79.5054 20.9263C79.294 21.1099 79.0825 21.1099 78.8711 21.2935C78.6596 21.2935 78.6596 21.477 78.4482 21.6606C78.4482 21.8442 78.2367 22.3949 78.2367 22.5784C78.8711 22.3949 79.7169 21.8442 79.294 22.2113ZM81.4085 21.8442C80.5627 23.4962 79.0826 23.3127 80.7742 21.1099C81.62 20.0085 82.0429 20.5592 81.8314 21.1099C81.8314 21.1099 81.62 21.6606 81.4085 21.8442C81.62 21.8442 81.62 22.2113 81.62 22.2113C81.62 22.2113 81.62 22.2113 81.4085 22.2113C81.4085 22.3949 81.4085 22.0277 81.4085 21.8442ZM81.62 21.1099C81.62 20.9263 81.62 20.9263 81.62 20.7428C81.4085 20.5592 80.9856 20.9263 80.9856 21.2935C79.294 23.3127 80.9856 23.1291 81.62 21.1099ZM83.3116 20.5592C84.7917 19.6414 85.2146 19.6414 83.9459 20.3756C83.9459 20.3756 82.6772 21.2935 82.4658 21.1099C82.2543 21.1099 83.1001 20.7428 83.3116 20.5592ZM84.5803 19.0907C84.3688 19.2742 82.6772 20.1921 82.4658 20.3756H82.2543C82.4658 20.1921 84.3688 19.0907 84.5803 19.0907C84.7917 19.0907 84.7917 18.9071 84.5803 19.0907ZM85.6375 17.9893C85.6375 17.8057 85.6375 17.9893 85.6375 17.9893C85.849 18.1729 85.6375 19.2742 85.6375 19.4578C85.6375 19.4578 85.4261 20.5592 85.2146 20.5592C85.0032 20.7428 85.2146 19.6414 85.4261 19.2742C85.6375 18.1729 85.6375 17.9893 85.6375 17.9893ZM86.2719 20.0085C86.0604 20.0085 86.0604 19.8249 86.0604 19.8249C86.0604 19.8249 86.2719 19.8249 86.4833 19.8249C86.4833 19.8249 86.4833 19.8249 86.4833 19.6414C86.4833 19.6414 86.9062 17.9893 86.9062 17.6222C86.9062 17.6222 86.6948 17.8057 86.6948 17.6222C86.4833 17.6222 86.6948 17.4386 86.9062 17.4386C88.3864 16.3372 89.2322 17.0715 87.5406 18.3564C87.9635 18.1729 88.1749 18.1728 88.3864 18.1728C89.0207 17.9893 87.1177 20.0085 86.2719 20.0085ZM87.1177 18.54C86.9062 18.54 86.9062 18.54 87.1177 18.54C86.9062 18.7235 86.6948 19.6414 86.6948 19.8249C87.9635 18.9071 88.8093 17.6222 87.1177 18.54ZM87.9635 17.0715C87.752 17.0715 87.3291 17.255 87.1177 17.4386C87.3291 17.4386 87.1177 18.1729 86.9062 18.3564C86.9062 18.3564 87.1177 18.1728 87.3291 18.1728C87.5406 17.9893 87.752 17.8057 87.9635 17.6222C87.9635 17.4386 88.1749 17.0715 87.9635 17.0715ZM27.0656 53.9681C26.8541 54.1517 26.4312 54.3352 26.0083 54.5188C26.0083 54.7024 25.5854 55.9873 25.5854 55.8038L26.2198 53.2338C26.4312 53.0503 27.6999 52.316 27.6999 52.4996L26.8541 53.0503C26.6427 53.0503 26.6427 53.2338 26.4312 53.4174C26.4312 53.601 26.2198 54.1517 26.2198 54.3352C26.6427 54.1517 27.4885 53.601 27.0656 53.9681ZM28.7572 53.4174C30.6603 52.316 30.6603 52.4996 28.5457 53.7845C27.6999 54.1517 27.4885 54.1517 28.7572 53.4174ZM30.0259 51.9489L29.603 52.1325C26.8541 54.1517 27.9114 52.8667 30.0259 51.9489C30.2374 51.9489 30.2374 51.7653 30.0259 51.9489ZM30.4488 53.4174C30.2374 53.4174 30.2374 53.2338 30.2374 53.2338C30.2374 53.2338 30.4488 53.2338 30.6603 53.2338C30.4488 53.0503 30.6603 52.8667 30.6603 52.6832C31.0832 51.3982 31.0832 51.0311 31.0832 51.0311C30.8717 51.2146 30.6603 51.0311 30.8717 50.8475C32.3519 49.7461 33.1977 50.4804 31.5061 51.7653C33.832 50.4804 31.7175 53.4174 30.4488 53.4174ZM31.2946 51.9489C31.0832 52.1325 30.8717 53.0503 30.8717 53.2338C32.3519 52.4996 33.1977 51.0311 31.2946 51.9489ZM31.2946 50.8475C31.5061 50.8475 31.2946 51.5818 31.0832 51.7653C31.2946 51.5818 31.7175 51.2146 31.929 51.0311C32.5633 50.6639 32.3519 50.2968 31.2946 50.8475ZM34.4664 52.316C33.6206 53.2338 34.0435 52.316 34.4664 51.0311C33.832 52.1325 32.7748 52.316 33.4091 51.0311C33.6206 50.6639 34.0435 49.9297 34.4664 49.7461C34.8893 49.5625 35.1007 50.1132 34.6778 49.9297C34.0435 49.7461 32.9862 52.1325 33.6206 51.7653C34.2549 51.3982 34.6778 50.2968 34.6778 50.2968C34.8893 50.1132 34.6778 50.8475 34.4664 51.2146C34.2549 51.7653 34.0435 52.316 34.0435 52.4996C34.8893 51.7653 35.1007 51.5818 34.4664 52.316ZM37.0038 48.4611C37.4267 48.8283 37.2152 50.2968 36.158 50.8475C35.3122 51.2146 35.3122 50.6639 35.3122 49.9297C35.3122 49.5625 35.3122 49.379 35.3122 49.379L35.7351 49.1954C35.7351 49.1954 35.7351 50.1132 35.7351 50.2968C35.7351 51.0311 36.7923 50.6639 36.7923 49.379C36.7923 49.0118 36.7923 48.8283 36.5809 48.6447L37.0038 48.4611ZM38.9068 47.7269C38.6954 47.7269 38.4839 47.9104 38.2725 48.094C37.8496 48.4611 38.061 48.6447 38.4839 48.6447C39.3298 48.6447 38.9069 49.379 38.2725 49.7461C38.061 49.9297 37.4267 49.9297 37.4267 49.7461C37.4267 49.7461 37.4267 49.5625 37.6381 49.5625C38.2725 49.7461 39.3298 48.6447 38.2725 48.8283C38.061 48.8283 37.8496 48.8283 37.8496 48.6447C37.8496 48.2776 38.4839 47.7269 38.6954 47.5433C39.1183 47.3598 39.1183 47.9104 38.9068 47.7269ZM39.9641 46.9926C40.1756 46.9926 38.9069 51.2146 39.5412 47.9104C39.5412 47.7269 39.7527 46.8091 39.9641 46.9926ZM40.1756 46.4419C39.9641 46.4419 39.7527 46.4419 39.9641 46.2584C40.1756 45.8912 40.387 46.2584 40.1756 46.4419ZM42.2901 45.8912C42.5015 46.0748 42.2901 46.6255 42.2901 46.8091C41.8672 48.094 41.6557 47.9104 41.8672 47.5433C41.8672 47.1762 42.2901 46.4419 42.2901 46.0748C42.2901 45.3405 41.4443 46.8091 41.2328 47.3598C39.9641 49.5625 41.0214 47.5433 41.0214 46.4419C41.0214 46.2584 41.2328 46.2584 41.2328 46.4419C41.2328 46.8091 41.0214 47.5433 40.8099 47.7269C40.8099 47.5433 41.6557 45.7077 42.2901 45.8912ZM46.0962 43.872C46.0962 44.0556 46.0962 44.7898 46.0962 45.157C46.0962 45.3405 46.0962 45.5241 46.3076 45.3405V45.5241C46.0962 45.7077 45.8847 45.7077 45.8847 45.3405C45.4618 46.2584 44.1931 46.6255 44.1931 45.5241C44.1931 44.4227 45.4618 43.6884 45.8847 44.0556C45.8847 43.872 45.8847 43.872 45.8847 43.6884L46.0962 43.872ZM45.6733 45.3405C45.6733 45.157 45.6733 44.9734 45.6733 44.7898C45.4618 44.2391 44.616 44.7898 44.616 45.7077C44.4046 46.4419 45.4618 46.0748 45.6733 45.3405ZM31.0832 56.9052C32.5633 55.9873 32.7748 55.9873 31.7175 56.7216C29.8145 57.823 29.8145 57.6394 31.0832 56.9052ZM31.929 55.8038C28.9687 57.6394 30.6603 56.1709 32.3519 55.4366C32.5633 55.2531 32.7748 55.2531 31.929 55.8038ZM32.7748 56.9052C32.5633 56.9052 32.5633 56.7216 32.5633 56.7216C32.5633 56.7216 32.7748 56.7216 32.9862 56.7216C32.7748 56.538 32.9862 56.3545 32.9862 56.1709C33.4091 54.8859 33.4091 54.5188 33.4091 54.5188C33.1977 54.7024 32.9862 54.5188 33.1977 54.3352C34.6778 53.2338 35.5236 53.9681 33.832 55.2531C36.158 53.9681 34.0435 56.9052 32.7748 56.9052ZM33.6206 55.4366C33.4091 55.6202 33.1977 56.538 33.1977 56.7216C34.6778 55.9873 35.5236 54.5188 33.6206 55.4366ZM33.6206 54.3352C33.832 54.3352 33.6206 55.0695 33.4091 55.2531C33.6206 55.0695 34.0435 54.7024 34.2549 54.5188C34.8893 54.1517 34.6778 53.7845 33.6206 54.3352ZM35.3122 55.2531C35.3122 55.0695 35.3122 55.2531 35.3122 55.2531C36.158 55.4366 37.6381 54.3352 36.3694 53.9681C35.9465 53.7845 35.7351 53.601 35.9465 53.4174C36.158 53.0503 37.2152 52.316 37.2152 52.4996L36.5809 53.0503C35.9465 53.601 36.158 53.601 36.5809 53.7845C36.7923 53.7845 37.0038 53.9681 37.0038 54.1517C37.2152 55.0695 35.3122 55.9873 35.3122 55.2531ZM39.3298 53.7845C38.6954 54.5188 37.6381 54.7024 37.6381 53.7845C37.6381 52.8667 38.6954 52.1325 39.3298 51.9489V52.316C37.8496 52.316 37.6381 55.0695 39.3298 53.601V53.7845ZM39.7527 53.4174C39.1183 52.8667 40.5985 50.8475 41.0214 51.2146C41.6557 51.7653 40.1756 53.7845 39.7527 53.4174ZM39.9641 53.2338C40.5985 52.8667 41.2328 51.2146 40.5985 51.3982C39.7527 51.9489 39.5412 53.2338 39.9641 53.2338ZM42.9244 50.4804C42.713 50.4804 42.5015 50.6639 42.2901 50.8475C41.8672 51.2146 42.0786 51.3982 42.5015 51.3982C43.3473 51.3982 42.9244 52.1325 42.2901 52.4996C42.0786 52.6832 41.4443 52.6832 41.4443 52.4996C41.4443 52.4996 41.4443 52.316 41.6557 52.316C42.2901 52.316 43.1359 51.3982 42.2901 51.3982C42.0786 51.3982 41.8672 51.3982 41.8672 51.2146C41.8672 50.8475 42.5015 50.2968 42.713 50.1132C43.1359 49.9297 43.1359 50.4804 42.9244 50.4804ZM46.7305 48.2776C46.7305 48.4611 46.7305 49.1954 46.7305 49.5625C46.7305 49.7461 46.7305 49.9297 46.942 49.7461V49.9297C46.7305 50.1132 46.5191 50.1132 46.5191 49.7461C46.3076 50.1132 46.0962 50.2968 45.8847 50.4804C44.616 51.0311 44.8275 49.0118 45.8847 48.4611C46.0962 48.2776 46.5191 48.2776 46.5191 48.4611C46.5191 48.2776 46.5191 48.2776 46.5191 48.094L46.7305 48.2776ZM45.6733 50.4804C45.8847 50.2968 46.0962 49.9297 46.3076 49.7461C46.5191 49.1954 46.3076 48.8283 45.6733 49.0118C44.8275 49.379 44.8275 50.8475 45.6733 50.4804ZM56.6687 42.5871C57.3031 42.4035 57.9374 42.5871 57.9374 43.1377C57.9374 43.6884 57.726 44.0556 57.3031 44.4227C57.0916 44.6063 56.8802 44.7898 56.6687 44.9734C56.4573 45.157 56.6687 45.5241 56.4573 45.7077C56.4573 45.7077 56.4573 45.7077 56.4573 45.5241C56.4573 45.157 56.4573 44.9734 56.0344 45.157C55.8229 45.3405 55.6115 45.3405 55.1886 45.157C54.9771 44.9734 54.9771 44.7898 54.9771 44.4227C54.9771 44.0556 55.1886 43.6884 55.4 43.3213C55.6115 43.1377 55.8229 42.9542 56.0344 42.7706C56.2458 42.7706 56.4573 42.5871 56.6687 42.5871ZM56.2458 43.3213C56.0344 43.3213 55.8229 43.5049 55.6115 43.6884C55.4 43.872 55.4 44.2391 55.4 44.4227C55.4 45.157 56.2458 44.9734 56.2458 44.4227C56.2458 44.2391 56.4573 43.5049 56.2458 43.3213ZM56.8802 44.4227C57.0916 44.4227 57.3031 44.2391 57.5145 43.872C57.5145 43.6884 57.726 43.1377 57.5145 42.9542C57.3031 42.7706 56.8802 42.7706 56.6687 42.9542C56.4573 43.1377 56.4573 43.872 56.6687 44.0556C56.6687 44.2391 56.6687 44.4227 56.8802 44.4227ZM28.7572 56.538C29.3916 56.3545 30.0259 56.538 30.0259 57.0887C30.0259 57.6394 29.8145 58.0065 29.3916 58.3737C29.1801 58.5572 28.9687 58.7408 28.7572 58.9244C28.5457 59.1079 28.7572 59.4751 28.5457 59.6586C28.5457 59.6586 28.5457 59.6586 28.5457 59.4751C28.5457 59.1079 28.5457 58.9244 28.1228 59.1079C27.9114 59.2915 27.6999 59.2915 27.277 59.1079C27.0656 58.9244 27.0656 58.5572 27.0656 58.3737C27.0656 58.0065 27.277 57.6394 27.4885 57.2723C27.6999 57.0887 27.9114 56.9052 28.1228 56.7216C28.3343 56.7216 28.5457 56.7216 28.7572 56.538ZM28.1228 57.4558C27.9114 57.4558 27.6999 57.6394 27.4885 57.823C27.4885 58.0065 27.4885 58.1901 27.4885 58.5572C27.4885 59.2915 28.3343 59.1079 28.3343 58.5572C28.3343 58.1901 28.3343 57.4558 28.1228 57.4558C28.3343 57.4558 28.1228 57.4558 28.1228 57.4558ZM28.7572 58.3737C28.9687 58.3737 29.1801 58.1901 29.3916 57.823C29.3916 57.6394 29.603 57.0887 29.3916 56.9052C29.1801 56.7216 28.7572 56.7216 28.5457 56.9052C28.3343 57.0887 28.3343 57.823 28.5457 58.0065C28.5457 58.3737 28.7572 58.3737 28.7572 58.3737ZM59.2062 42.7706C60.8978 41.8528 60.6863 42.0364 60.2634 42.4035C57.726 43.872 58.1489 43.5049 59.2062 42.7706ZM58.5718 42.5871C58.3603 42.5871 58.5718 42.5871 58.5718 42.5871C58.3603 42.4035 60.2634 41.3021 60.4749 41.3021C61.3207 40.935 59.4176 42.2199 58.5718 42.5871ZM61.3207 42.4035C61.955 42.0364 62.5894 41.4857 62.5894 41.4857C63.2237 41.1185 60.8978 43.1377 60.8978 42.4035C60.8978 42.2199 61.3207 40.3843 61.3207 40.2007C61.3207 40.0171 61.3207 40.0171 61.3207 40.0171C62.1665 40.5678 60.8978 42.7706 61.3207 42.4035ZM63.8581 39.0993C63.8581 38.9157 63.8581 39.0993 63.8581 39.0993C64.0695 39.0993 64.0695 39.0993 63.8581 39.0993C64.0695 40.3843 62.8008 43.5049 63.6466 40.5678C63.8581 39.2829 63.8581 39.0993 63.8581 39.0993ZM76.968 29.0032C76.968 29.1868 76.1222 29.5539 75.9108 29.7375C75.9108 29.921 75.9108 30.1046 75.6993 30.2882C75.4879 30.8389 75.2764 31.206 76.7566 30.1046C77.1795 29.7375 77.1795 29.921 76.5451 30.4717C74.2192 32.1238 75.6993 29.921 75.6993 28.8196C75.6993 28.6361 76.1222 28.2689 76.5451 28.2689C78.0253 27.5347 77.3909 28.0854 75.9108 28.8196C75.9108 29.0032 75.6993 29.5539 75.6993 29.7375C75.9108 29.3703 76.968 28.8196 76.968 29.0032ZM78.2367 27.7183C78.4482 27.7183 77.8138 30.1046 77.6024 29.7375L78.0253 28.0854C78.0253 28.0854 78.0253 27.7183 78.2367 27.7183ZM78.4482 27.1676C78.2367 27.1676 78.0253 27.1676 78.2367 26.984C78.4482 26.8004 78.6596 27.1676 78.4482 27.1676ZM80.7742 27.3511C80.9856 27.1676 80.9856 27.1676 80.7742 27.3511C80.7742 27.5347 78.8711 28.6361 78.8711 28.6361C78.6596 28.4525 80.5627 27.3511 80.7742 27.3511ZM80.5627 26.8004C77.6024 28.6361 79.294 27.1676 80.9856 26.4333C81.1971 26.2497 81.1971 26.2497 80.5627 26.8004ZM81.62 26.984C82.6772 24.0469 82.8887 24.5976 83.3116 25.699C83.7345 26.6169 83.7345 26.6169 82.8887 27.1676C80.9856 28.4525 81.4085 27.9018 81.62 26.984ZM82.6772 25.1483C82.2543 25.8826 81.8314 26.984 81.62 27.7183C82.0429 27.5347 82.8887 26.984 83.3116 26.6169C83.1001 26.0662 82.8887 25.5155 82.6772 25.1483ZM86.6948 22.762V22.9456C88.3864 22.2113 88.3864 24.4141 86.6948 25.3319V25.5155L86.2719 25.699V25.5155C84.5803 26.2497 84.5803 24.0469 86.2719 23.1291V22.9456L86.6948 22.762ZM86.2719 23.3127C85.2146 23.8634 85.0032 25.699 86.2719 25.1483V23.3127ZM86.6948 25.1483C87.752 24.4141 87.9635 22.762 86.6948 23.3127V25.1483ZM78.0253 33.0416C78.2367 32.8581 78.2367 33.0417 78.0253 33.2252C77.8138 33.4088 77.3909 33.5923 77.1795 33.7759C77.1795 34.143 76.7566 34.8773 76.968 34.8773C77.6024 34.5102 78.2367 33.9595 78.2367 33.9595C78.6596 33.7759 77.1795 35.0609 76.7566 35.0609C76.5451 35.0609 76.7566 34.5102 76.7566 34.3266C77.3909 32.491 76.7566 32.491 78.6596 31.7567C78.8711 31.5731 79.0826 31.7567 78.2367 32.1238C78.0253 32.3074 77.8138 32.3074 77.8138 32.491C77.6024 32.491 77.6024 32.6745 77.6024 32.6745C77.6024 32.8581 77.3909 33.4088 77.3909 33.5923C77.3909 33.4088 77.8138 33.2252 78.0253 33.0416ZM79.5054 31.7567C79.7169 31.7567 79.0825 33.7759 78.8711 33.9595C78.8711 33.9595 78.6596 33.9595 78.8711 33.7759C79.0825 32.6745 79.0826 32.8581 79.294 32.3074C79.294 32.1238 79.294 31.7567 79.5054 31.7567ZM79.7169 31.0224C79.9284 31.3896 79.294 31.3896 79.5054 31.0224C79.7169 30.8389 79.7169 30.8389 79.7169 31.0224ZM82.2543 31.206C82.2543 31.206 81.62 31.7567 81.4085 31.7567C81.4085 31.7567 80.1398 32.6745 79.9284 32.491C79.9284 32.491 82.2543 31.0224 82.2543 31.206ZM82.2543 30.4717L81.8314 30.6553C79.0826 32.6745 80.1398 31.3896 82.2543 30.4717C82.4658 30.4717 82.4658 30.2882 82.2543 30.4717ZM82.8887 29.3703C84.7917 28.0854 85.0032 29.1868 84.1574 29.921C85.2146 29.5539 85.0032 31.206 82.8887 31.9403V29.3703ZM83.3116 30.2882C84.7917 29.5539 84.5803 28.6361 83.3116 29.3703V30.2882ZM83.3116 31.5731C83.7345 31.3896 84.3688 31.0224 84.3688 30.4717C84.3688 29.921 83.7345 30.2882 83.3116 30.4717V31.5731ZM85.0032 30.8389C85.0032 30.6553 85.0032 30.8389 85.0032 30.8389C85.6375 28.4525 85.6375 27.7183 85.6375 27.7183C85.6375 27.7183 85.849 27.7183 85.849 27.9018C85.849 28.4525 85.6375 29.3703 85.4261 30.6553C85.2146 30.4717 85.2146 30.8389 85.0032 30.8389ZM87.9635 27.5347C88.3864 27.9018 88.1749 29.3703 87.1177 29.921C86.6948 30.1046 86.2719 30.1046 86.2719 29.5539C86.2719 29.3703 86.2719 28.6361 86.2719 28.4525L86.6948 28.2689C86.6948 28.2689 86.6948 29.1868 86.6948 29.3703C86.6948 29.7375 86.9062 29.7375 87.1177 29.7375C87.752 29.3703 87.752 28.2689 87.5406 27.9018L87.9635 27.5347ZM30.0259 61.1272C30.0259 61.1272 29.8145 61.3107 29.8145 61.4943C29.603 61.6779 29.1801 62.5957 28.9686 62.7793C29.1801 62.9628 30.0259 63.3299 29.8145 63.5135C29.603 63.6971 28.9686 63.1464 28.9686 62.9628C28.5457 63.6971 28.3343 64.0642 28.3343 64.2478C28.1228 64.6149 27.9114 64.4313 28.1228 64.4313C28.1228 64.4313 28.3343 64.0642 28.9686 62.9628C28.7572 62.7792 28.1228 62.045 28.3343 61.8614H28.5457C28.5457 62.045 28.7572 62.2285 28.9686 62.5957C29.1801 62.2285 29.603 61.4943 29.8145 61.3107C29.8145 60.9436 30.0259 60.9436 30.0259 61.1272ZM30.6603 62.7793C30.6603 62.9628 31.7175 62.2286 31.929 62.2286C32.5633 61.6779 31.929 62.5957 30.8717 63.1464C30.6603 63.3299 30.4488 63.3299 30.4488 63.1464L31.0832 60.76C31.5061 60.2093 30.6603 62.4121 30.6603 62.7793ZM33.4091 60.76C35.1007 59.8422 34.8893 60.0258 34.4664 60.3929C31.929 61.8614 32.3519 61.3107 33.4091 60.76ZM34.8893 59.2915L34.4664 59.4751C31.2946 61.4943 32.9862 60.0258 34.8893 59.2915C34.8893 59.1079 34.8893 59.1079 34.8893 59.2915ZM37.0038 59.6586C37.4267 59.4751 37.6381 58.1901 37.0038 58.0065L37.4267 57.823C37.6381 57.823 37.8496 58.1901 37.8496 58.5572C37.8496 59.8422 36.7923 60.3929 36.5809 59.8422C36.5809 60.0258 36.3694 60.3929 35.9465 60.3929C35.1007 60.9436 34.8893 59.4751 35.5236 58.7408L35.9465 58.5572C35.5236 59.1079 35.5236 60.3929 35.9465 60.2093C36.3694 60.0258 36.3694 59.2915 36.3694 58.9244L36.7923 58.7408C36.7923 59.1079 36.5809 59.8422 37.0038 59.6586ZM38.6954 58.7408C39.3298 58.3737 39.9641 57.823 39.9641 57.823C40.1756 57.6394 39.7527 58.0065 39.5412 58.3737C39.1183 58.7408 38.2725 59.2915 38.2725 58.9244C38.2725 58.9244 38.9068 56.1709 38.6954 56.538C38.6954 56.538 38.6954 56.3545 38.9068 56.538C39.3298 56.7216 38.2725 59.1079 38.6954 58.7408ZM42.713 55.9873C42.713 55.9873 42.0786 56.538 41.8672 56.538C41.8672 56.538 40.5985 57.4559 40.387 57.2723C40.387 57.2723 42.713 55.8038 42.713 55.9873ZM40.8099 56.538C40.5985 56.538 40.5985 56.538 40.8099 56.538C40.5985 56.3545 42.5015 55.2531 42.713 55.2531C43.5588 54.7024 41.4443 56.1709 40.8099 56.538ZM43.9817 54.3352L43.7702 54.5188C43.5588 54.5188 44.4046 53.4174 44.8275 53.601C45.6733 53.9681 43.9817 55.8038 43.3473 56.3545C43.5588 56.1709 44.616 55.6202 44.8275 55.4366H45.0389C45.0389 55.6202 43.7702 56.3545 43.5588 56.3545H43.3473C43.3473 56.3545 43.3473 56.1709 43.5588 56.1709C43.9817 55.8038 43.9817 55.6202 44.4046 55.2531C45.2504 53.9681 44.8275 53.2338 43.9817 54.3352ZM46.3076 53.4174C44.8275 54.1517 46.5191 52.8667 47.9992 52.316C48.2107 52.1325 48.4221 52.316 47.5763 52.6832V52.8667C47.3649 53.2338 47.3649 53.9681 47.5763 54.3352C47.7878 54.5188 47.3649 54.7024 47.3649 54.5188C47.1534 54.1517 47.3649 53.2338 47.5763 52.8667C47.3649 53.0503 46.942 53.2338 46.5191 53.4174C46.5191 53.601 46.5191 53.9681 46.5191 54.5188C46.3076 55.8038 45.6733 55.8038 46.0962 55.2531C46.3076 54.8859 46.5191 54.3352 46.5191 53.7845C46.3076 53.601 46.3076 53.4174 46.3076 53.4174ZM48.8451 53.7845C49.4794 53.4174 50.1138 52.8667 50.1138 52.8667C50.7481 52.4996 48.4221 54.5188 48.4221 53.7845C48.4221 53.7845 49.0565 51.0311 48.8451 51.3982C48.8451 51.3982 48.8451 51.2146 49.0565 51.3982C49.4794 51.7653 48.4221 53.9681 48.8451 53.7845ZM50.7481 51.2146C51.5939 53.0503 50.9596 51.7653 51.3825 52.4996C51.5939 51.9489 52.0168 51.2146 52.0168 50.6639L52.4397 50.4804C52.4397 51.0311 52.0168 52.1325 51.5939 52.6832L51.171 52.8667L50.3252 51.3982L50.7481 51.2146ZM53.0741 35.428C53.0741 35.428 53.0741 35.2444 52.0168 37.0801C52.0168 37.0801 52.2283 37.2637 52.4397 37.2637C53.2855 37.8144 52.8626 37.9979 51.8054 37.2637C51.5939 37.6308 50.7481 39.0993 50.7481 38.7322C50.7481 38.7322 51.171 37.9979 51.5939 37.2637C51.171 36.8965 50.9596 36.5294 50.9596 36.3458C50.9596 36.1623 51.171 36.1623 51.171 36.3458C51.171 36.5294 51.3825 36.713 51.5939 37.0801C51.8054 36.713 52.2283 35.9787 52.4397 35.7951C52.8626 35.2444 53.0741 35.428 53.0741 35.428ZM54.5542 35.0609C54.7657 34.8773 54.9771 35.0609 54.9771 35.0609C54.9771 35.2444 54.9771 35.2444 54.7657 35.0609C54.1313 34.8773 52.8626 37.8144 54.3428 36.5294L54.7657 36.1623C55.1886 35.9787 54.1313 37.0801 53.497 37.0801C53.2855 37.0801 53.2855 36.8965 53.2855 36.713C53.2855 36.5294 54.1313 35.428 54.5542 35.0609ZM57.3031 34.5102C57.5145 34.3266 57.726 34.5102 57.3031 34.6937C53.7084 36.8965 55.6115 35.428 57.3031 34.5102ZM57.5145 33.7759L57.0916 33.9595C56.2458 34.5102 55.6115 34.8773 55.4 34.8773H55.1886C55.4 34.8773 57.3031 33.7759 57.5145 33.7759C57.726 33.7759 57.726 33.5923 57.5145 33.7759ZM58.3603 34.5102C58.3603 33.9595 58.5718 33.2252 58.5718 32.6745C58.5718 32.491 58.7832 32.491 58.7832 32.6745C58.5718 34.8773 58.1489 35.7951 58.3603 34.5102ZM59.2062 34.8773C58.9947 34.8773 60.6863 30.8389 60.6863 31.0224C60.6863 30.8389 60.8978 31.0224 60.8978 31.206L59.4176 34.6937C59.4176 34.8773 59.4176 35.0609 59.2062 34.8773ZM63.0123 32.6745C63.4352 32.491 63.6466 31.206 63.0123 31.0224L63.4352 30.8389C63.6466 30.8389 63.8581 31.206 63.8581 31.5731C63.8581 32.8581 62.8008 33.4088 62.5894 32.8581C62.5894 33.0416 62.3779 33.4088 61.955 33.4088C61.1092 33.9595 60.8978 32.491 61.5321 31.7567L61.955 31.5731C61.7436 31.9403 61.5321 32.3074 61.5321 32.6745C61.5321 33.5923 62.3779 33.2252 62.3779 32.491V31.7567L62.8008 31.5731C62.5894 32.1238 62.3779 32.8581 63.0123 32.6745ZM66.184 29.0032C65.9726 29.0032 65.5497 29.3703 65.5497 29.5539C64.0695 31.3896 64.9153 32.1238 65.9726 31.0224C66.8184 30.1046 66.184 31.3896 65.3382 31.7567C63.6466 32.491 64.7039 29.5539 66.184 29.0032C66.3955 29.0032 66.184 28.8196 66.184 29.0032ZM51.3825 40.7514C51.8054 40.5678 50.9596 43.5049 50.9596 43.3213C50.7481 43.3213 51.171 42.2199 51.171 42.0364C51.3825 40.935 51.3825 40.7514 51.3825 40.7514ZM54.7657 40.5678C54.5542 41.6692 54.1313 41.8528 54.3428 41.3021C54.7657 40.2007 54.7657 39.0993 53.9199 40.7514C53.0741 42.0364 52.8626 43.1377 53.2855 41.3021C53.497 40.5678 53.2855 40.2007 52.8626 41.1185C52.6512 41.4857 51.8054 42.9542 51.8054 42.9542C51.5939 43.1377 52.0168 41.6692 52.0168 41.4857C52.0168 40.7514 52.4397 40.7514 52.0168 42.5871C52.2283 42.2199 52.8626 40.7514 53.2855 40.3843C53.497 40.3843 53.7084 40.3843 53.7084 40.7514C53.7084 40.935 53.7084 41.1185 53.497 41.3021C53.7084 40.7514 53.9199 40.3843 54.1313 40.2007C54.7657 39.2829 55.1886 39.2829 54.7657 40.5678ZM57.0916 39.65C56.2458 41.3021 54.7657 40.935 56.4573 38.9157C57.3031 37.8144 57.726 38.365 57.5145 38.9157C57.5145 39.4664 57.3031 39.0993 57.3031 39.8336C57.3031 40.0171 57.3031 40.0171 57.0916 40.0171C57.0916 40.2007 57.0916 39.65 57.0916 39.65ZM57.3031 38.9157C57.3031 38.7322 57.3031 38.7322 57.3031 38.5486C57.0916 38.365 56.6687 38.7322 56.6687 39.0993C54.9771 41.1185 56.4573 40.935 57.3031 38.9157ZM59.2062 39.0993C59.2062 39.0993 58.9947 39.0993 58.5718 38.7322C58.3603 39.0993 57.726 40.2007 57.726 39.8336L58.5718 38.7322C58.3603 38.5486 57.9374 38.1815 58.1489 37.9979C58.1489 37.9979 58.3603 37.8144 58.3603 37.9979C58.3603 38.1815 58.5718 38.365 58.7832 38.5486C58.7832 38.365 59.4176 37.2637 59.6291 37.2637C60.052 37.0801 59.4176 37.8144 59.2062 38.1815C58.9947 38.365 58.9947 38.7322 58.7832 38.7322C59.6291 39.2829 58.3603 38.1815 59.2062 39.0993C59.4176 39.0993 59.4176 38.9157 59.2062 39.0993ZM59.6291 39.0993C59.6291 39.0993 61.1092 35.0609 61.1092 35.2444C61.3207 35.428 60.6863 36.5294 60.6863 36.713C60.2634 37.6308 60.2634 37.9979 59.8405 38.9157C59.8405 39.0993 59.8405 39.2829 59.6291 39.0993ZM64.0695 34.6937C63.6466 35.428 63.6466 35.7951 63.2237 36.5294C63.2237 36.713 62.8008 37.6308 62.5894 37.8144H62.3779C62.1665 37.6308 62.1665 37.0801 62.1665 36.713L61.955 36.8965C61.5321 37.4472 61.5321 37.2637 61.7436 36.8965C61.955 36.5294 62.1665 36.3458 62.1665 36.713C62.1665 36.8965 62.1665 36.8965 62.1665 37.0801C62.1665 37.2637 62.1665 37.2637 62.1665 37.4472C62.1665 37.6308 62.1665 37.6308 62.3779 37.8144C62.8008 36.8965 63.0123 36.1623 63.4352 35.0609C64.281 33.9595 64.281 34.143 64.0695 34.6937ZM64.281 34.5102L64.0695 34.6937C63.8581 34.6937 64.0695 34.3266 64.281 34.3266C65.1268 33.4088 65.9726 33.9595 64.9153 35.2444C64.4924 35.7951 64.281 36.1623 63.8581 36.713C63.8581 36.713 64.281 36.5294 64.4924 36.3458C65.7611 35.6116 65.5497 35.7951 64.7039 36.3458C63.4352 37.0801 63.2237 37.0801 64.0695 36.1623C65.7611 34.143 65.1268 33.5923 64.281 34.5102ZM65.9726 36.1623C65.9726 35.9787 66.3955 35.6116 66.184 35.6116H65.9726C65.9726 35.428 66.3955 35.2444 66.3955 35.6116C66.3955 35.7951 66.3955 35.9787 66.184 36.1623C65.7611 36.5294 65.5497 36.713 65.9726 36.1623ZM58.1489 49.379C58.1489 49.5625 56.6687 50.4804 56.4573 50.4804C55.8229 50.2968 58.1489 48.2776 58.1489 47.7269L57.5145 47.9104C57.3031 48.094 56.6687 48.4611 56.6687 48.2776C56.6687 47.9104 58.9947 46.8091 58.3603 48.094C58.3603 48.2776 56.6687 50.2968 56.6687 50.2968C56.6687 50.4804 58.1489 49.1954 58.1489 49.379ZM59.4176 47.9104C62.1665 46.2584 60.2634 47.7269 58.5718 48.6447C58.5718 48.4611 59.4176 48.094 59.4176 47.9104ZM60.8978 46.6255L60.4749 46.8091C57.5145 48.6447 58.7832 47.5433 60.8978 46.6255C60.8978 46.4419 60.8978 46.4419 60.8978 46.6255ZM63.8581 44.7898C63.2237 46.0748 62.5894 47.5433 62.5894 47.5433C62.5894 47.7269 62.3779 47.9104 62.1665 47.9104C61.955 47.9104 61.7436 46.9926 61.7436 46.8091C61.5321 46.9926 61.5321 47.1762 61.5321 47.1762C61.3207 47.5433 61.3207 46.8091 61.955 46.6255C62.1665 46.4419 62.1665 46.8091 62.1665 46.9926C62.1665 47.1762 62.1665 47.5433 62.3779 47.7269C62.8008 46.8091 63.0123 46.0748 63.4352 44.9734C63.8581 44.2391 64.0695 44.2391 63.8581 44.7898ZM64.0695 46.6255H64.7039C64.7039 46.8091 64.0695 46.9926 63.6466 46.8091C62.8008 46.4419 63.4352 44.9734 63.8581 44.2391C64.9153 42.4035 65.3382 42.5871 65.1268 42.9542C64.7039 43.3213 64.4924 43.6884 64.0695 44.0556C63.6466 45.157 63.0123 46.6255 64.0695 46.6255ZM67.4527 42.5871C67.4527 42.5871 67.4527 42.4035 66.3955 44.2391C66.3955 44.2391 66.6069 44.4227 66.8184 44.4227C67.6642 44.9734 67.2413 45.157 66.184 44.4227C65.9726 44.7898 65.1268 46.2584 65.1268 45.8912C65.1268 45.8912 65.5497 45.157 65.9726 44.4227C65.7611 44.0556 65.5497 43.872 65.5497 43.5049C65.5497 43.3213 65.7611 43.3213 65.7611 43.5049C65.7611 43.6884 65.9726 43.872 66.184 44.2391C66.3955 43.872 66.8184 43.1377 67.0298 42.9542C67.4527 42.4035 67.6642 42.5871 67.4527 42.5871ZM69.1444 42.2199C69.5673 42.0364 69.7787 42.4035 69.3558 42.4035C68.7214 42.2199 67.2413 45.5241 69.1444 43.6884C69.3558 43.5049 69.5673 43.5049 69.1444 43.872C68.7215 44.2391 68.0871 44.6063 68.0871 44.0556C67.8756 43.6884 68.7215 42.5871 69.1444 42.2199ZM69.9902 42.7706C69.7787 42.7706 71.2589 41.6692 71.2589 41.8528C71.2589 42.0364 69.9902 42.7706 69.9902 42.7706ZM73.7963 39.4664C73.7963 39.4664 73.5848 39.65 73.5848 39.8336C73.3734 40.0171 72.9505 40.935 72.739 41.1185C72.739 41.1185 72.9505 41.3021 73.1619 41.3021C74.0077 41.8528 73.5848 41.8528 73.1619 41.6692C72.9505 41.6692 72.739 41.4857 72.5276 41.3021C71.4703 43.1377 71.4703 42.7706 71.4703 42.5871C71.6818 42.2199 72.1047 41.4857 72.3161 41.1185C72.1047 40.935 71.8932 40.7514 71.8932 40.3843C71.8932 40.2007 72.1047 40.2007 72.1047 40.3843C72.1047 40.5678 72.3161 40.7514 72.5276 41.1185C72.739 40.7514 73.1619 40.0171 73.3734 39.8336C73.7963 39.2829 74.0077 39.4664 73.7963 39.4664ZM74.6421 41.1185C75.2764 40.7514 75.9108 40.2007 75.9108 40.2007C76.5451 39.8336 74.2192 41.8528 74.2192 41.1185C74.2192 41.1185 74.8535 38.365 74.6421 38.7322C74.6421 38.7322 74.6421 38.5486 74.8535 38.7322C75.2764 39.0993 74.2192 41.4857 74.6421 41.1185ZM76.1222 40.935C76.1222 40.935 77.3909 39.4664 77.6024 38.5486C77.8138 38.1815 78.0253 37.2637 77.6024 37.0801C77.6024 37.0801 77.3909 37.0801 77.1795 36.8965C76.968 36.8965 77.1795 36.713 77.1795 36.713C77.8138 36.3458 78.6596 37.4472 77.1795 39.65C76.3337 40.935 76.1222 40.935 76.1222 40.935ZM79.5054 36.8965L79.294 37.0801C79.0826 37.0801 79.294 36.713 79.5054 36.713C80.3513 35.7951 81.4085 36.3458 79.7169 38.365C79.5055 38.5486 79.294 38.9157 79.0826 39.0993C79.294 39.0993 80.5627 37.9979 80.5627 38.1815C80.5627 38.365 79.294 39.0993 79.0826 39.0993C78.8711 39.0993 78.8711 39.0993 78.8711 39.0993C78.8711 38.9157 79.294 38.5486 79.5054 38.365C80.9856 36.5294 80.1398 35.9787 79.5054 36.8965ZM82.4658 36.3458C82.4658 36.5294 82.4658 36.713 82.2543 36.8965C82.2543 36.8965 82.2543 37.2637 82.0429 37.2637C82.0429 37.2637 82.0429 37.2637 82.0429 37.0801C82.0429 37.2637 82.0429 37.0801 82.4658 36.3458C82.2543 36.5294 81.4085 36.8965 81.4085 36.8965C81.4085 36.8965 81.1971 36.713 81.4085 36.713C82.4658 36.1623 82.2543 36.3458 82.4658 35.428C82.4658 35.2444 82.4658 35.2444 82.6772 35.2444C82.8887 35.2444 82.6772 35.7951 82.6772 35.9787C82.8887 35.7951 83.523 35.428 83.7345 35.428C83.523 35.428 83.7345 35.6116 82.4658 36.3458ZM83.7345 36.713C83.523 36.713 83.9459 35.7951 83.9459 35.6116C84.1574 35.0609 84.1574 34.6937 84.1574 34.5102C83.7345 34.5102 84.7917 33.7759 85.4261 33.7759C85.849 33.7759 85.6375 34.3266 85.4261 34.5102C85.2146 34.8773 85.0032 35.0609 84.5803 35.428C84.3688 35.6116 84.1574 35.6116 85.0032 35.7951C85.0032 35.7951 85.2146 35.7951 85.4261 35.7951C85.6375 35.7951 85.6375 35.9787 85.4261 35.9787C85.2146 36.1623 84.3688 35.7951 84.1574 35.6116C84.1574 35.7951 84.1574 35.7951 84.1574 35.9787C84.1574 36.1623 84.1574 36.3458 83.9459 36.5294C83.9459 36.5294 83.9459 36.713 83.7345 36.713ZM84.3688 35.428C84.5803 35.0609 85.6375 34.5102 85.6375 33.9595C85.6375 33.5923 85.0032 33.9595 84.5803 34.3266C84.5803 34.5102 84.3688 35.2444 84.3688 35.428ZM86.9062 33.0416L86.6948 33.2252C86.4833 33.2252 87.3291 32.1238 87.752 32.3074C87.9635 32.491 87.9635 32.8581 87.752 33.2252C87.5406 33.5923 87.1177 34.143 86.9062 34.5102C86.6948 34.6937 86.4833 35.0609 86.2719 35.2444C86.4833 35.0609 87.5406 34.5102 87.752 34.3266H87.9635C87.9635 34.5102 86.6948 35.428 86.2719 35.428C86.0604 35.428 86.4833 34.8773 86.6948 34.6937C87.1177 34.3266 87.3291 33.9595 87.5406 33.5923C87.752 33.2252 87.752 32.6745 87.3291 32.8581C87.3291 32.8581 87.1177 33.0416 86.9062 33.0416Z" fill="white"/>
<path d="M47.5763 98.2079L27.6999 88.2953C27.6999 88.1118 27.4884 88.1118 27.4884 87.7446L47.3648 97.6572C47.3648 98.0243 47.5763 98.2079 47.5763 98.2079Z" fill="#B09529"/>
<path d="M47.3648 97.8404L27.4884 87.7443V85.5415L47.3648 95.454V97.8404Z" fill="#D3AB34"/>
<path d="M48.2111 94.3528L28.3347 84.4403L42.7133 77.0977L62.5897 87.1938L48.2111 94.3528Z" fill="#FFCD39"/>
<path d="M47.3648 95.4539L27.4884 85.5413C27.4884 85.1742 27.9113 84.6235 28.3342 84.4399L48.2106 94.3525C47.7877 94.536 47.3648 95.0867 47.3648 95.4539Z" fill="#EEC23E"/>
<path d="M48.2111 98.2078C47.7882 98.3913 47.3652 98.2078 47.3652 97.8406V95.4543C47.3652 95.0872 47.7882 94.5365 48.2111 94.3529L62.5897 87.1938V87.561L62.1668 87.7445L61.321 89.2131L62.1668 90.498L62.5897 90.6816V90.8652L48.2111 98.2078Z" fill="#B09529"/>
<path d="M47.5767 97.8407C47.5767 98.0243 47.5767 98.0243 47.5767 98.0243H47.7882L62.1668 90.8652L61.7439 90.6817L60.8981 89.5803L61.7439 87.7446L47.9996 94.7201C47.7882 94.7201 47.5767 94.9037 47.5767 95.0872C47.3653 95.2708 47.3652 95.4544 47.3652 95.6379L47.5767 97.8407Z" fill="#B09529"/>
<path d="M62.1667 87.561L48.4224 94.5365C48.2109 94.5365 47.9995 94.7201 47.9995 94.9037C47.788 95.0872 47.788 95.2708 47.788 95.4543V97.6571L62.1667 90.4981V87.561Z" fill="#FFFFFA"/>
<path d="M37.2159 83.8898L42.0792 81.5034L41.6563 81.3198L36.793 83.7062L37.2159 83.8898Z" fill="#60522B"/>
<path d="M37.0043 85.1747L44.828 81.3198L44.4051 81.1362L36.5814 84.9911L37.0043 85.1747Z" fill="#60522B"/>
<path d="M38.2733 85.909L45.8856 82.0542L45.4627 81.8706L37.8504 85.7255L38.2733 85.909Z" fill="#60522B"/>
</svg>
