<svg width="267" height="47" viewBox="0 0 267 47" fill="none" xmlns="http://www.w3.org/2000/svg">
<circle cx="23.4541" cy="23.4541" r="23.4541" fill="#1935CA"/>
<path d="M57.3753 22.44C57.3753 20.36 57.8253 18.51 58.7253 16.89C59.6253 15.25 60.8753 13.98 62.4753 13.08C64.0953 12.16 65.9253 11.7 67.9653 11.7C70.4653 11.7 72.6053 12.36 74.3853 13.68C76.1653 15 77.3553 16.8 77.9553 19.08H72.3153C71.8953 18.2 71.2953 17.53 70.5153 17.07C69.7553 16.61 68.8853 16.38 67.9053 16.38C66.3253 16.38 65.0453 16.93 64.0653 18.03C63.0853 19.13 62.5953 20.6 62.5953 22.44C62.5953 24.28 63.0853 25.75 64.0653 26.85C65.0453 27.95 66.3253 28.5 67.9053 28.5C68.8853 28.5 69.7553 28.27 70.5153 27.81C71.2953 27.35 71.8953 26.68 72.3153 25.8H77.9553C77.3553 28.08 76.1653 29.88 74.3853 31.2C72.6053 32.5 70.4653 33.15 67.9653 33.15C65.9253 33.15 64.0953 32.7 62.4753 31.8C60.8753 30.88 59.6253 29.61 58.7253 27.99C57.8253 26.37 57.3753 24.52 57.3753 22.44ZM98.7968 16.26L88.2968 40.95H82.7768L86.6168 32.43L79.8068 16.26H85.5368L89.4068 26.73L93.2468 16.26H98.7968ZM106.382 18.63C106.862 17.85 107.552 17.22 108.452 16.74C109.352 16.26 110.382 16.02 111.542 16.02C112.922 16.02 114.172 16.37 115.292 17.07C116.412 17.77 117.292 18.77 117.932 20.07C118.592 21.37 118.922 22.88 118.922 24.6C118.922 26.32 118.592 27.84 117.932 29.16C117.292 30.46 116.412 31.47 115.292 32.19C114.172 32.89 112.922 33.24 111.542 33.24C110.362 33.24 109.332 33.01 108.452 32.55C107.572 32.07 106.882 31.44 106.382 30.66V33H101.252V10.8H106.382V18.63ZM113.702 24.6C113.702 23.32 113.342 22.32 112.622 21.6C111.922 20.86 111.052 20.49 110.012 20.49C108.992 20.49 108.122 20.86 107.402 21.6C106.702 22.34 106.352 23.35 106.352 24.63C106.352 25.91 106.702 26.92 107.402 27.66C108.122 28.4 108.992 28.77 110.012 28.77C111.032 28.77 111.902 28.4 112.622 27.66C113.342 26.9 113.702 25.88 113.702 24.6ZM137.993 24.36C137.993 24.84 137.963 25.34 137.903 25.86H126.293C126.373 26.9 126.703 27.7 127.283 28.26C127.883 28.8 128.613 29.07 129.473 29.07C130.753 29.07 131.643 28.53 132.143 27.45H137.603C137.323 28.55 136.813 29.54 136.073 30.42C135.353 31.3 134.443 31.99 133.343 32.49C132.243 32.99 131.013 33.24 129.653 33.24C128.013 33.24 126.553 32.89 125.273 32.19C123.993 31.49 122.993 30.49 122.273 29.19C121.553 27.89 121.193 26.37 121.193 24.63C121.193 22.89 121.543 21.37 122.243 20.07C122.963 18.77 123.963 17.77 125.243 17.07C126.523 16.37 127.993 16.02 129.653 16.02C131.273 16.02 132.713 16.36 133.973 17.04C135.233 17.72 136.213 18.69 136.913 19.95C137.633 21.21 137.993 22.68 137.993 24.36ZM132.743 23.01C132.743 22.13 132.443 21.43 131.843 20.91C131.243 20.39 130.493 20.13 129.593 20.13C128.733 20.13 128.003 20.38 127.403 20.88C126.823 21.38 126.463 22.09 126.323 23.01H132.743ZM146.43 19.05C147.03 18.13 147.78 17.41 148.68 16.89C149.58 16.35 150.58 16.08 151.68 16.08V21.51H150.27C148.99 21.51 148.03 21.79 147.39 22.35C146.75 22.89 146.43 23.85 146.43 25.23V33H141.3V16.26H146.43V19.05ZM162.262 28.2L165.892 16.26H171.352L165.412 33H159.082L153.142 16.26H158.632L162.262 28.2ZM189.891 24.36C189.891 24.84 189.861 25.34 189.801 25.86H178.191C178.271 26.9 178.601 27.7 179.181 28.26C179.781 28.8 180.511 29.07 181.371 29.07C182.651 29.07 183.541 28.53 184.041 27.45H189.501C189.221 28.55 188.711 29.54 187.971 30.42C187.251 31.3 186.341 31.99 185.241 32.49C184.141 32.99 182.911 33.24 181.551 33.24C179.911 33.24 178.451 32.89 177.171 32.19C175.891 31.49 174.891 30.49 174.171 29.19C173.451 27.89 173.091 26.37 173.091 24.63C173.091 22.89 173.441 21.37 174.141 20.07C174.861 18.77 175.861 17.77 177.141 17.07C178.421 16.37 179.891 16.02 181.551 16.02C183.171 16.02 184.611 16.36 185.871 17.04C187.131 17.72 188.111 18.69 188.811 19.95C189.531 21.21 189.891 22.68 189.891 24.36ZM184.641 23.01C184.641 22.13 184.341 21.43 183.741 20.91C183.141 20.39 182.391 20.13 181.491 20.13C180.631 20.13 179.901 20.38 179.301 20.88C178.721 21.38 178.361 22.09 178.221 23.01H184.641ZM198.327 19.05C198.927 18.13 199.677 17.41 200.577 16.89C201.477 16.35 202.477 16.08 203.577 16.08V21.51H202.167C200.887 21.51 199.927 21.79 199.287 22.35C198.647 22.89 198.327 23.85 198.327 25.23V33H193.197V16.26H198.327V19.05ZM205.609 24.6C205.609 22.88 205.929 21.37 206.569 20.07C207.229 18.77 208.119 17.77 209.239 17.07C210.359 16.37 211.609 16.02 212.989 16.02C214.089 16.02 215.089 16.25 215.989 16.71C216.909 17.17 217.629 17.79 218.149 18.57V10.8H223.279V33H218.149V30.6C217.669 31.4 216.979 32.04 216.079 32.52C215.199 33 214.169 33.24 212.989 33.24C211.609 33.24 210.359 32.89 209.239 32.19C208.119 31.47 207.229 30.46 206.569 29.16C205.929 27.84 205.609 26.32 205.609 24.6ZM218.149 24.63C218.149 23.35 217.789 22.34 217.069 21.6C216.369 20.86 215.509 20.49 214.489 20.49C213.469 20.49 212.599 20.86 211.879 21.6C211.179 22.32 210.829 23.32 210.829 24.6C210.829 25.88 211.179 26.9 211.879 27.66C212.599 28.4 213.469 28.77 214.489 28.77C215.509 28.77 216.369 28.4 217.069 27.66C217.789 26.92 218.149 25.91 218.149 24.63ZM230.171 14.52C229.271 14.52 228.531 14.26 227.951 13.74C227.391 13.2 227.111 12.54 227.111 11.76C227.111 10.96 227.391 10.3 227.951 9.78C228.531 9.24 229.271 8.97 230.171 8.97C231.051 8.97 231.771 9.24 232.331 9.78C232.911 10.3 233.201 10.96 233.201 11.76C233.201 12.54 232.911 13.2 232.331 13.74C231.771 14.26 231.051 14.52 230.171 14.52ZM232.721 16.26V33H227.591V16.26H232.721ZM236.018 24.63C236.018 22.89 236.368 21.37 237.068 20.07C237.788 18.77 238.778 17.77 240.038 17.07C241.318 16.37 242.778 16.02 244.418 16.02C246.518 16.02 248.268 16.57 249.668 17.67C251.088 18.77 252.018 20.32 252.458 22.32H246.998C246.538 21.04 245.648 20.4 244.328 20.4C243.388 20.4 242.638 20.77 242.078 21.51C241.518 22.23 241.238 23.27 241.238 24.63C241.238 25.99 241.518 27.04 242.078 27.78C242.638 28.5 243.388 28.86 244.328 28.86C245.648 28.86 246.538 28.22 246.998 26.94H252.458C252.018 28.9 251.088 30.44 249.668 31.56C248.248 32.68 246.498 33.24 244.418 33.24C242.778 33.24 241.318 32.89 240.038 32.19C238.778 31.49 237.788 30.49 237.068 29.19C236.368 27.89 236.018 26.37 236.018 24.63ZM265.132 28.65V33H262.522C260.662 33 259.212 32.55 258.172 31.65C257.132 30.73 256.612 29.24 256.612 27.18V20.52H254.572V16.26H256.612V12.18H261.742V16.26H265.102V20.52H261.742V27.24C261.742 27.74 261.862 28.1 262.102 28.32C262.342 28.54 262.742 28.65 263.302 28.65H265.132Z" fill="#1935CA"/>
<path fill-rule="evenodd" clip-rule="evenodd" d="M23.0498 10.8303V11.0387V12.497H23.6748V15.8408C21.9391 15.9492 20.5498 17.3905 20.5498 19.1481V20.8302H19.7165C19.5414 20.8302 19.3791 20.885 19.2445 20.9783L16.1643 19.2669C16.1701 19.2329 16.1749 19.1991 16.1749 19.1635C16.1749 18.894 15.9995 18.6637 15.7582 18.5768V16.2469H16.3832V14.5803H14.7166V14.7886V16.2469H15.3416V18.5768C15.1003 18.6637 14.9249 18.894 14.9249 19.1635C14.9249 19.5062 15.2072 19.7885 15.5499 19.7885C15.7069 19.7885 15.8497 19.727 15.9601 19.6298L18.9695 21.3022C18.916 21.4119 18.8832 21.5339 18.8832 21.6635V24.7885H13.0499V24.1635H11.3833V24.3718V25.8301H13.0499V25.2051H18.8832V25.8301V26.6569L15.9609 28.2813C15.8504 28.1835 15.7075 28.1217 15.5499 28.1217C15.2072 28.1217 14.9249 28.404 14.9249 28.7467C14.9249 29.0163 15.1003 29.2458 15.3416 29.3327V31.6634H14.7166V31.8717V33.33H16.3832V31.6634H15.7582V29.3327C15.9995 29.2458 16.1749 29.0163 16.1749 28.7467C16.1749 28.7117 16.17 28.6777 16.1643 28.6442L18.8832 27.1338V28.7467V29.1634C18.8832 29.6215 19.2585 29.9967 19.7165 29.9967H23.6748V34.1633H23.0498V34.3717V35.83H24.7164V34.1633H24.0915V29.9967H28.0497C28.5078 29.9967 28.8831 29.6215 28.8831 29.1634V27.1338L31.6019 28.6442C31.5963 28.6777 31.5914 28.7117 31.5914 28.7467C31.5914 29.0163 31.7668 29.2458 32.008 29.3327V31.6634H31.383V31.8717V33.33H33.0497V31.6634H32.4247V29.3327C32.6659 29.2458 32.8413 29.0163 32.8413 28.7467C32.8413 28.404 32.559 28.1217 32.2163 28.1217C32.0592 28.1217 31.9165 28.1831 31.8062 28.2804L28.8831 26.6577V25.2051H34.7163V25.8301H36.383V24.1635H34.7163V24.3718V24.7885H28.8831V21.6635C28.8831 21.5339 28.8503 21.4119 28.7968 21.3022L31.807 19.6298C31.9173 19.7268 32.0596 19.7885 32.2163 19.7885C32.559 19.7885 32.8413 19.5062 32.8413 19.1635C32.8413 18.894 32.6659 18.6637 32.4247 18.5768V16.2469H33.0497V14.5803H31.383V14.7886V16.2469H32.008V18.5768C31.7668 18.6637 31.5914 18.894 31.5914 19.1635C31.5914 19.1991 31.5961 19.2329 31.6019 19.2669L28.5217 20.9783C28.3872 20.885 28.2248 20.8302 28.0497 20.8302H22.214V19.1513C22.214 18.2223 22.9395 17.4969 23.8823 17.4969C24.8222 17.4969 25.5454 18.2182 25.5498 19.1432V19.1635C25.5498 19.6216 25.925 19.9969 26.3831 19.9969C26.8411 19.9969 27.2164 19.6216 27.2164 19.1635V19.1017C27.2167 19.0856 27.215 19.0694 27.2115 19.0537C27.1625 17.3394 25.7957 15.9472 24.0915 15.8408V12.497H24.7164V10.8303H23.0498ZM23.4665 11.247H24.2998V12.0803H23.4665V11.247ZM15.1332 14.9969H15.9666V15.8303H15.1332V14.9969ZM31.7997 14.9969H32.633V15.8303H31.7997V14.9969ZM23.8831 16.2469C25.4898 16.2469 26.7998 17.5482 26.7998 19.1481V19.1635C26.7998 19.398 26.6175 19.5802 26.3831 19.5802C26.1487 19.5802 25.9664 19.398 25.9664 19.1635V19.1513H25.9672C25.9672 19.1458 25.9665 19.1405 25.9664 19.1351V19.1017C25.9666 19.0869 25.9653 19.0722 25.9624 19.0577C25.9135 17.9524 25.0106 17.0802 23.8823 17.0802C22.7221 17.0802 21.7974 18.0018 21.7974 19.1513V20.8302H20.9665V19.1481C20.9665 17.5482 22.2765 16.2469 23.8831 16.2469ZM15.5499 18.9552C15.6674 18.9552 15.7582 19.046 15.7582 19.1635C15.7582 19.2811 15.6674 19.3719 15.5499 19.3719C15.4324 19.3719 15.3416 19.2811 15.3416 19.1635C15.3416 19.046 15.4324 18.9552 15.5499 18.9552ZM32.2163 18.9552C32.3339 18.9552 32.4247 19.046 32.4247 19.1635C32.4247 19.2811 32.3339 19.3719 32.2163 19.3719C32.0988 19.3719 32.008 19.2811 32.008 19.1635C32.008 19.046 32.0988 18.9552 32.2163 18.9552ZM19.7165 21.2468H28.0497C28.2842 21.2468 28.4664 21.4291 28.4664 21.6635V25.8301H19.2999V21.6635C19.2999 21.4291 19.4821 21.2468 19.7165 21.2468ZM23.8831 22.0802C23.3103 22.0802 22.8415 22.549 22.8415 23.1218C22.8417 23.4425 23.0106 23.7229 23.2581 23.9185V25.4126H24.5081V23.9177C24.7554 23.7223 24.9242 23.4422 24.9248 23.1218C24.9248 22.549 24.4559 22.0802 23.8831 22.0802ZM23.8831 22.4968C24.2308 22.4968 24.5081 22.7742 24.5081 23.1218C24.5077 23.3451 24.3889 23.5506 24.1956 23.6622L24.0915 23.7224V24.9968H23.6748V23.7232L23.5706 23.663C23.3771 23.5512 23.2583 23.3453 23.2581 23.1218C23.2581 22.7742 23.5355 22.4968 23.8831 22.4968ZM11.8 24.5801H12.6333V24.7885V25.2051V25.4135H11.8V24.5801ZM35.133 24.5801H35.9663V25.4135H35.133V24.5801ZM19.2999 26.2468H28.4664V28.3301H19.2999V26.2468ZM19.9248 26.6634V26.8718V27.9134H21.1748V26.6634H19.9248ZM21.5915 26.6634V26.8718V27.9134H22.8415V26.6634H21.5915ZM23.2581 26.6634V26.8718V27.9134H24.5081V26.6634H23.2581ZM24.9248 26.6634V26.8718V27.9134H26.1748V26.6634H24.9248ZM26.5914 26.6634V26.8718V27.9134H27.8414V26.6634H26.5914ZM20.3415 27.0801H20.7582V27.4968H20.3415V27.0801ZM22.0082 27.0801H22.4248V27.4968H22.0082V27.0801ZM23.6748 27.0801H24.0915V27.4968H23.6748V27.0801ZM25.3414 27.0801H25.7581V27.4968H25.3414V27.0801ZM27.0081 27.0801H27.4247V27.4968H27.0081V27.0801ZM15.5499 28.5384C15.6674 28.5384 15.7582 28.6292 15.7582 28.7467C15.7582 28.8643 15.6674 28.9551 15.5499 28.9551C15.4324 28.9551 15.3416 28.8643 15.3416 28.7467C15.3416 28.6292 15.4324 28.5384 15.5499 28.5384ZM32.2163 28.5384C32.3339 28.5384 32.4247 28.6292 32.4247 28.7467C32.4247 28.8643 32.3339 28.9551 32.2163 28.9551C32.0988 28.9551 32.008 28.8643 32.008 28.7467C32.008 28.6292 32.0988 28.5384 32.2163 28.5384ZM19.2999 28.7467H28.4664V29.1634C28.4664 29.3979 28.2842 29.5801 28.0497 29.5801H19.7165C19.4821 29.5801 19.2999 29.3979 19.2999 29.1634V28.7467ZM15.1332 32.08H15.9666V32.9133H15.1332V32.08ZM31.7997 32.08H32.633V32.9133H31.7997V32.08ZM23.4665 34.58H24.2998V35.4133H23.4665V34.58Z" fill="white"/>
</svg>
