<svg width="25" height="20" viewBox="0 0 25 20" fill="none" xmlns="http://www.w3.org/2000/svg">
<path d="M21 0C22.0938 0 22.6406 0.21875 22.6406 0.65625C22.6406 0.84375 22.4688 1 22.125 1.125C19.25 2.28125 17.8125 4.53125 17.8125 7.875C18.25 7.8125 18.5625 7.78125 18.75 7.78125C22.5 7.78125 24.375 9.65625 24.375 13.4062C24.375 17.125 22.5 18.9844 18.75 18.9844C14.4062 18.9844 12.2344 16.5938 12.2344 11.8125C12.2344 6.65625 14.3125 2.95312 18.4688 0.703125C19.3438 0.234375 20.1875 0 21 0ZM8.76562 0.140625C9.85938 0.140625 10.4062 0.359375 10.4062 0.796875C10.4062 0.984375 10.2344 1.14062 9.89062 1.26562C7.01562 2.42188 5.57812 4.67188 5.57812 8.01562C6.01562 7.95313 6.32812 7.92188 6.51562 7.92188C10.2656 7.92188 12.1406 9.79688 12.1406 13.5469C12.1406 17.2656 10.2656 19.125 6.51562 19.125C2.17188 19.125 0 16.7344 0 11.9531C0 6.79688 2.07812 3.09375 6.23438 0.84375C7.10938 0.375 7.95312 0.140625 8.76562 0.140625Z" fill="#00DAF7"/>
</svg>
